<?xml version="1.0" encoding="utf-8"?>
<!-- Generator: Adobe Illustrator 26.2.1, SVG Export Plug-In . SVG Version: 6.00 Build 0)  -->
<svg version="1.1" id="Layer_1" xmlns="http://www.w3.org/2000/svg" xmlns:xlink="http://www.w3.org/1999/xlink" x="0px" y="0px"
	 viewBox="0 0 1097.62 163.49" style="enable-background:new 0 0 1097.62 163.49;" xml:space="preserve">
<style type="text/css">
	.st0{fill:#003867;}
	.st1{opacity:0.4;}
	.st2{fill:#BBC1D0;}
	.st3{clip-path:url(#SVGID_00000002364956717128733360000005208841065068299157_);}
	.st4{fill:#C4CEE1;}
	.st5{clip-path:url(#SVGID_00000070800384123428324520000016810027619846455178_);}
	.st6{clip-path:url(#SVGID_00000090289894314183816820000017227059328859967654_);fill:#003867;}
	.st7{fill:#0090C7;}
	.st8{fill:#63B9E9;}
	.st9{fill:#00609C;}
</style>
<g>
	<g>
		<path class="st0" d="M579.32,71.94c-1.8-1.94-3.61-3.86-5.41-5.78c-0.01,0.39-0.03,0.91-0.04,1.56c-0.01,0.65-0.02,1.54-0.02,2.66
			c0,0.29,0,0.65,0.01,1.08c0.01,0.43,0.01,0.88,0.02,1.35c0.01,0.47,0.02,0.95,0.03,1.44c0.01,0.49,0.03,0.94,0.04,1.35
			s0.03,0.78,0.04,1.09c0.01,0.31,0.03,0.52,0.04,0.63c-0.22-0.03-0.47-0.04-0.73-0.04c-0.28,0-0.54,0.01-0.77,0.04
			c0.03-0.14,0.06-0.4,0.09-0.77c0.04-0.37,0.07-0.82,0.09-1.34c0.03-0.52,0.06-1.09,0.09-1.7c0.04-0.61,0.06-1.22,0.08-1.83
			c0.02-0.61,0.04-1.21,0.05-1.79c0.01-0.58,0.02-1.1,0.02-1.56c0-1.33,0-2.48-0.01-3.43c-0.01-0.96-0.03-1.67-0.05-2.14h0.33
			c0.85,0.92,1.75,1.9,2.72,2.95c0.96,1.05,1.92,2.08,2.87,3.1c0.95,1.02,1.85,1.98,2.7,2.89c0.85,0.91,1.6,1.68,2.24,2.32V71.2
			c0-1.46-0.01-2.88-0.03-4.26c-0.02-1.38-0.07-2.68-0.14-3.9c0.28,0.07,0.51,0.1,0.71,0.1c0.17,0,0.39-0.03,0.67-0.1
			c-0.03,0.31-0.06,0.76-0.09,1.37c-0.04,0.61-0.07,1.26-0.1,1.96c-0.03,0.69-0.07,1.37-0.09,2.04c-0.03,0.67-0.04,1.2-0.04,1.6
			c0,0.35,0,0.76,0,1.25c0,0.47,0,0.96,0.01,1.48c0.01,0.51,0.01,1.03,0.02,1.55c0.01,0.52,0.01,1.01,0.02,1.46
			c0.01,0.45,0.01,0.84,0.01,1.18c0,0.31,0,0.53,0,0.69h-0.29C582.83,75.77,581.13,73.88,579.32,71.94z"/>
		<path class="st0" d="M588.95,65.74c-0.04-0.88-0.07-1.78-0.12-2.7c0.18,0.03,0.35,0.05,0.52,0.07c0.17,0.02,0.33,0.03,0.5,0.03
			c0.17,0,0.33-0.01,0.5-0.03c0.17-0.02,0.34-0.05,0.52-0.07c-0.04,0.92-0.08,1.81-0.11,2.7c-0.04,0.88-0.05,1.78-0.05,2.7v3.58
			c0,0.92,0.02,1.82,0.05,2.71c0.04,0.89,0.07,1.76,0.11,2.62c-0.32-0.03-0.66-0.04-1.02-0.04c-0.36,0-0.7,0.01-1.02,0.04
			c0.04-0.86,0.08-1.73,0.12-2.62c0.03-0.89,0.05-1.79,0.05-2.71v-3.58C589,67.52,588.98,66.62,588.95,65.74z"/>
		<path class="st0" d="M594.84,65.71c-0.04-0.89-0.07-1.78-0.12-2.66c0.62,0.03,1.25,0.05,1.86,0.07c0.62,0.02,1.24,0.03,1.86,0.03
			c0.62,0,1.24-0.01,1.85-0.03c0.61-0.02,1.23-0.05,1.85-0.07c-0.04,0.21-0.06,0.42-0.06,0.62c0,0.21,0.02,0.42,0.06,0.62
			c-0.44-0.03-0.85-0.06-1.22-0.08c-0.37-0.03-0.76-0.06-1.17-0.08c-0.41-0.03-0.86-0.05-1.34-0.07c-0.49-0.02-1.07-0.03-1.75-0.03
			c-0.01,0.44-0.03,0.87-0.05,1.27c-0.02,0.4-0.03,0.86-0.03,1.37c0,0.54,0,1.07,0.01,1.58c0.01,0.51,0.01,0.9,0.01,1.17
			c0.61,0,1.16-0.01,1.64-0.02c0.49-0.01,0.93-0.03,1.33-0.05c0.4-0.02,0.77-0.04,1.11-0.06c0.34-0.02,0.66-0.04,0.97-0.07
			c-0.04,0.21-0.06,0.42-0.06,0.65c0,0.21,0.02,0.42,0.06,0.62c-0.36-0.04-0.78-0.08-1.26-0.1c-0.48-0.03-0.96-0.04-1.44-0.05
			c-0.48-0.01-0.93-0.01-1.35-0.02c-0.42-0.01-0.76-0.01-1.01-0.01c0,0.12,0,0.26-0.01,0.41c-0.01,0.15-0.01,0.33-0.01,0.55v0.81
			v1.25c0,0.79,0,1.44,0.01,1.96c0.01,0.51,0.02,0.9,0.03,1.17c0.46,0,0.94,0,1.46,0c0.53,0,1.04-0.01,1.55-0.03
			c0.51-0.02,0.99-0.05,1.44-0.08c0.45-0.03,0.84-0.09,1.18-0.16c-0.03,0.1-0.04,0.21-0.05,0.32c-0.01,0.12-0.01,0.22-0.01,0.32
			c0,0.22,0.02,0.4,0.06,0.54c-0.62-0.03-1.25-0.04-1.86-0.04c-0.62,0-1.25,0-1.88,0c-0.64,0-1.27,0-1.89,0
			c-0.62,0-1.26,0.01-1.89,0.04c0.04-0.89,0.08-1.77,0.12-2.65c0.03-0.88,0.05-1.78,0.05-2.69v-3.58
			C594.89,67.5,594.87,66.6,594.84,65.71z"/>
		<path class="st0" d="M605.35,65.74c-0.03-0.88-0.07-1.78-0.11-2.7c0.53,0.03,1.05,0.05,1.57,0.07c0.52,0.02,1.04,0.03,1.57,0.03
			c0.53,0,1.05-0.02,1.57-0.05c0.52-0.03,1.04-0.05,1.57-0.05c1.22,0,2.27,0.16,3.13,0.48c0.87,0.32,1.58,0.77,2.13,1.36
			c0.55,0.59,0.96,1.31,1.22,2.16c0.26,0.85,0.39,1.81,0.39,2.88c0,1.39-0.24,2.56-0.72,3.51c-0.48,0.95-1.09,1.72-1.83,2.3
			c-0.74,0.58-1.56,1-2.46,1.24c-0.89,0.24-1.75,0.36-2.57,0.36c-0.47,0-0.94-0.01-1.39-0.02c-0.46-0.01-0.92-0.02-1.39-0.02
			c-0.47,0-0.94,0-1.39,0c-0.46,0-0.92,0.01-1.4,0.04c0.04-0.86,0.08-1.73,0.11-2.62c0.04-0.89,0.05-1.79,0.05-2.71v-3.58
			C605.4,67.52,605.39,66.62,605.35,65.74z M607.23,76.43c0.29,0.07,0.69,0.12,1.19,0.16c0.5,0.03,1.01,0.05,1.54,0.05
			c0.76,0,1.53-0.09,2.29-0.27c0.76-0.18,1.45-0.52,2.05-1.02c0.6-0.5,1.1-1.18,1.48-2.05c0.38-0.87,0.57-1.99,0.57-3.36
			c0-1.21-0.15-2.2-0.45-2.98c-0.3-0.78-0.71-1.39-1.23-1.84c-0.52-0.45-1.14-0.76-1.86-0.94c-0.72-0.17-1.51-0.26-2.37-0.26
			c-0.62,0-1.21,0.02-1.75,0.06c-0.54,0.04-1.03,0.09-1.46,0.15c-0.04,0.67-0.07,1.36-0.09,2.09c-0.02,0.73-0.03,1.47-0.03,2.22
			v3.58C607.11,73.51,607.15,74.99,607.23,76.43z"/>
		<path class="st0" d="M621.65,65.71c-0.04-0.89-0.07-1.78-0.11-2.66c0.62,0.03,1.24,0.05,1.86,0.07c0.62,0.02,1.24,0.03,1.86,0.03
			s1.24-0.01,1.85-0.03c0.61-0.02,1.23-0.05,1.85-0.07c-0.04,0.21-0.06,0.42-0.06,0.62c0,0.21,0.02,0.42,0.06,0.62
			c-0.44-0.03-0.85-0.06-1.22-0.08c-0.37-0.03-0.76-0.06-1.16-0.08c-0.41-0.03-0.86-0.05-1.34-0.07c-0.49-0.02-1.07-0.03-1.75-0.03
			c-0.01,0.44-0.03,0.87-0.05,1.27c-0.02,0.4-0.03,0.86-0.03,1.37c0,0.54,0,1.07,0.01,1.58c0.01,0.51,0.01,0.9,0.01,1.17
			c0.61,0,1.16-0.01,1.64-0.02c0.49-0.01,0.93-0.03,1.33-0.05c0.4-0.02,0.77-0.04,1.11-0.06c0.34-0.02,0.66-0.04,0.97-0.07
			c-0.04,0.21-0.06,0.42-0.06,0.65c0,0.21,0.02,0.42,0.06,0.62c-0.36-0.04-0.78-0.08-1.26-0.1c-0.48-0.03-0.96-0.04-1.44-0.05
			c-0.48-0.01-0.93-0.01-1.35-0.02c-0.42-0.01-0.76-0.01-1.01-0.01c0,0.12,0,0.26-0.01,0.41c-0.01,0.15-0.01,0.33-0.01,0.55v0.81
			v1.25c0,0.79,0,1.44,0.01,1.96c0.01,0.51,0.02,0.9,0.03,1.17c0.46,0,0.94,0,1.46,0c0.53,0,1.04-0.01,1.55-0.03
			c0.51-0.02,0.98-0.05,1.44-0.08c0.45-0.03,0.84-0.09,1.18-0.16c-0.03,0.1-0.04,0.21-0.05,0.32c-0.01,0.12-0.01,0.22-0.01,0.32
			c0,0.22,0.02,0.4,0.06,0.54c-0.62-0.03-1.24-0.04-1.86-0.04c-0.62,0-1.25,0-1.88,0c-0.64,0-1.27,0-1.89,0
			c-0.62,0-1.26,0.01-1.89,0.04c0.04-0.89,0.08-1.77,0.11-2.65c0.03-0.88,0.05-1.78,0.05-2.69v-3.58
			C621.7,67.5,621.68,66.6,621.65,65.71z"/>
		<path class="st0" d="M632.16,65.74c-0.04-0.88-0.07-1.78-0.12-2.7c0.4,0.03,0.8,0.05,1.19,0.07c0.39,0.02,0.78,0.03,1.19,0.03
			c0.4,0,0.8-0.02,1.19-0.05c0.39-0.03,0.78-0.05,1.19-0.05c0.58,0,1.14,0.06,1.66,0.17c0.53,0.11,0.99,0.3,1.38,0.55
			c0.39,0.26,0.71,0.59,0.94,1.01c0.23,0.42,0.34,0.94,0.34,1.56c0,0.67-0.15,1.24-0.45,1.72c-0.3,0.48-0.66,0.87-1.09,1.19
			c-0.43,0.31-0.89,0.56-1.38,0.73c-0.49,0.17-0.94,0.29-1.34,0.34c0.17,0.21,0.39,0.5,0.69,0.87c0.29,0.38,0.62,0.79,0.98,1.24
			c0.36,0.45,0.74,0.92,1.12,1.42c0.39,0.49,0.76,0.96,1.12,1.42c0.36,0.45,0.7,0.86,1.02,1.24c0.32,0.37,0.58,0.66,0.77,0.85
			c-0.21-0.03-0.42-0.04-0.62-0.04c-0.21,0-0.42,0-0.62,0c-0.19,0-0.39,0-0.6,0c-0.21,0-0.41,0.01-0.6,0.04
			c-0.21-0.29-0.52-0.73-0.95-1.31c-0.42-0.58-0.89-1.21-1.4-1.87c-0.51-0.67-1.04-1.33-1.57-1.99c-0.53-0.66-1.02-1.22-1.47-1.68
			h-0.79v1.52c0,0.92,0.02,1.82,0.05,2.71c0.03,0.89,0.07,1.76,0.11,2.62c-0.32-0.03-0.66-0.04-1.02-0.04
			c-0.36,0-0.7,0.01-1.02,0.04c0.04-0.86,0.08-1.73,0.12-2.62c0.03-0.89,0.05-1.79,0.05-2.71v-3.58
			C632.21,67.52,632.19,66.62,632.16,65.74z M634.55,69.71c0.23,0.01,0.48,0.02,0.76,0.02c0.43,0,0.88-0.05,1.34-0.15
			c0.46-0.1,0.89-0.27,1.28-0.51c0.39-0.24,0.71-0.57,0.97-0.98c0.26-0.41,0.38-0.93,0.38-1.55c0-0.54-0.1-0.99-0.3-1.34
			c-0.2-0.35-0.46-0.63-0.78-0.84c-0.32-0.21-0.66-0.35-1.04-0.43c-0.37-0.08-0.74-0.11-1.1-0.11c-0.49,0-0.89,0.01-1.21,0.03
			c-0.32,0.02-0.59,0.05-0.81,0.07c-0.03,0.76-0.05,1.52-0.08,2.27c-0.03,0.75-0.04,1.5-0.04,2.25v1.19
			C634.11,69.66,634.32,69.69,634.55,69.71z"/>
		<path class="st0" d="M645.02,75.4c0.19,0.26,0.42,0.49,0.69,0.7c0.27,0.21,0.59,0.38,0.95,0.51c0.36,0.13,0.76,0.2,1.21,0.2
			c0.46,0,0.87-0.08,1.24-0.24c0.37-0.16,0.68-0.38,0.94-0.65c0.26-0.27,0.45-0.59,0.59-0.96c0.14-0.37,0.21-0.76,0.21-1.18
			c0-0.64-0.16-1.14-0.49-1.52c-0.33-0.37-0.73-0.69-1.22-0.94c-0.49-0.25-1.01-0.48-1.57-0.69c-0.56-0.21-1.09-0.47-1.57-0.78
			c-0.49-0.31-0.89-0.71-1.22-1.2c-0.33-0.49-0.49-1.14-0.49-1.96c0-0.58,0.1-1.11,0.31-1.59c0.21-0.48,0.51-0.89,0.9-1.24
			c0.4-0.35,0.87-0.62,1.43-0.81c0.56-0.19,1.18-0.29,1.87-0.29c0.67,0,1.24,0.08,1.73,0.24c0.49,0.16,0.94,0.41,1.35,0.74
			c-0.12,0.24-0.23,0.49-0.31,0.75c-0.08,0.26-0.17,0.6-0.25,1h-0.25c-0.07-0.19-0.16-0.41-0.28-0.63
			c-0.12-0.23-0.28-0.44-0.48-0.63c-0.2-0.19-0.44-0.36-0.72-0.49c-0.28-0.13-0.61-0.2-1-0.2c-0.39,0-0.75,0.06-1.07,0.19
			c-0.33,0.12-0.61,0.3-0.85,0.53c-0.24,0.23-0.43,0.5-0.56,0.82c-0.13,0.32-0.2,0.67-0.2,1.04c0,0.65,0.16,1.17,0.49,1.54
			c0.33,0.38,0.73,0.69,1.22,0.95c0.48,0.26,1.01,0.49,1.57,0.69c0.56,0.2,1.08,0.45,1.57,0.74c0.49,0.29,0.89,0.67,1.22,1.12
			c0.33,0.46,0.49,1.07,0.49,1.83c0,0.64-0.11,1.24-0.34,1.81c-0.23,0.57-0.56,1.06-1,1.49c-0.44,0.42-0.97,0.75-1.6,0.98
			c-0.63,0.23-1.35,0.34-2.15,0.34c-0.86,0-1.56-0.11-2.09-0.34c-0.53-0.23-0.98-0.49-1.34-0.78c0.12-0.32,0.21-0.61,0.26-0.86
			c0.05-0.26,0.09-0.59,0.13-0.99h0.25C644.68,74.89,644.83,75.14,645.02,75.4z"/>
		<path class="st0" d="M661.85,65.39c0.39,0.94,0.78,1.88,1.19,2.84c0.4,0.96,0.8,1.91,1.21,2.85c0.4,0.94,0.78,1.82,1.13,2.63
			c0.35,0.81,0.67,1.54,0.96,2.18c0.28,0.64,0.52,1.12,0.7,1.46c-0.19-0.03-0.38-0.04-0.55-0.04c-0.17,0-0.36,0-0.55,0
			c-0.19,0-0.38,0-0.55,0c-0.17,0-0.36,0.01-0.55,0.04c-0.1-0.32-0.23-0.7-0.4-1.16c-0.17-0.45-0.35-0.92-0.55-1.42
			c-0.2-0.49-0.41-0.99-0.61-1.5c-0.21-0.51-0.4-0.99-0.58-1.45c-0.44-0.01-0.9-0.02-1.35-0.03c-0.46-0.01-0.92-0.01-1.37-0.01
			c-0.43,0-0.85,0-1.27,0.01c-0.42,0.01-0.84,0.02-1.27,0.03c-0.44,1.08-0.85,2.11-1.21,3.09c-0.36,0.98-0.63,1.79-0.81,2.43
			c-0.24-0.03-0.49-0.04-0.77-0.04c-0.28,0-0.54,0.01-0.77,0.04c1.12-2.43,2.22-4.84,3.29-7.24c1.07-2.4,2.14-4.84,3.23-7.33h0.4
			C661.1,63.58,661.46,64.45,661.85,65.39z M657.64,59.71c0.21-0.21,0.46-0.31,0.75-0.31c0.29,0,0.54,0.1,0.75,0.31
			c0.21,0.21,0.31,0.46,0.31,0.75c0,0.29-0.1,0.54-0.31,0.75c-0.21,0.21-0.46,0.31-0.75,0.31c-0.29,0-0.54-0.1-0.75-0.31
			c-0.21-0.21-0.31-0.46-0.31-0.75C657.33,60.17,657.44,59.92,657.64,59.71z M657.81,70.87c0.36,0,0.73,0.01,1.12,0.02
			c0.39,0.01,0.76,0.02,1.12,0.02c0.39,0,0.78,0,1.17-0.01c0.39-0.01,0.78-0.02,1.17-0.03l-2.31-5.29L657.81,70.87z M661.74,59.71
			c0.21-0.21,0.46-0.31,0.75-0.31c0.29,0,0.54,0.1,0.75,0.31c0.21,0.21,0.31,0.46,0.31,0.75c0,0.29-0.1,0.54-0.31,0.75
			c-0.21,0.21-0.46,0.31-0.75,0.31c-0.29,0-0.54-0.1-0.75-0.31c-0.21-0.21-0.31-0.46-0.31-0.75
			C661.43,60.17,661.54,59.92,661.74,59.71z"/>
		<path class="st0" d="M679.7,76.86c-0.27,0.13-0.6,0.25-0.98,0.35c-0.38,0.1-0.81,0.2-1.28,0.28c-0.47,0.08-0.97,0.12-1.48,0.12
			c-1.1,0-2.11-0.16-3.04-0.47c-0.93-0.31-1.73-0.79-2.4-1.43c-0.67-0.64-1.2-1.42-1.58-2.34c-0.38-0.92-0.57-1.97-0.57-3.15
			c0-1.18,0.19-2.23,0.57-3.15c0.38-0.92,0.92-1.7,1.6-2.34c0.69-0.64,1.51-1.12,2.47-1.46c0.96-0.33,2.01-0.5,3.16-0.5
			c0.91,0,1.75,0.09,2.51,0.28c0.76,0.19,1.42,0.41,2.01,0.68c-0.11,0.19-0.2,0.46-0.27,0.79c-0.07,0.33-0.12,0.61-0.17,0.83
			l-0.12,0.04c-0.14-0.17-0.33-0.35-0.58-0.56c-0.25-0.21-0.54-0.41-0.87-0.6c-0.33-0.19-0.71-0.36-1.12-0.49
			c-0.42-0.13-0.87-0.2-1.37-0.2c-0.82,0-1.58,0.13-2.28,0.4c-0.7,0.26-1.31,0.67-1.83,1.22c-0.52,0.55-0.93,1.24-1.22,2.08
			c-0.29,0.84-0.44,1.83-0.44,2.99c0,1.15,0.15,2.15,0.44,2.99c0.29,0.84,0.7,1.53,1.22,2.08c0.52,0.55,1.13,0.95,1.83,1.22
			c0.7,0.26,1.46,0.4,2.28,0.4c0.5,0,0.96-0.06,1.38-0.19c0.42-0.12,0.81-0.27,1.17-0.45c0.35-0.17,0.67-0.36,0.96-0.56
			c0.29-0.2,0.52-0.38,0.72-0.53l0.08,0.08l-0.19,1.23C680.16,76.6,679.97,76.72,679.7,76.86z"/>
		<path class="st0" d="M693.87,65.74c-0.04-0.88-0.07-1.78-0.12-2.7c0.18,0.03,0.35,0.05,0.52,0.07c0.17,0.02,0.33,0.03,0.5,0.03
			c0.17,0,0.33-0.01,0.5-0.03c0.17-0.02,0.34-0.05,0.52-0.07c-0.04,0.92-0.08,1.81-0.11,2.7c-0.04,0.88-0.05,1.78-0.05,2.7v3.58
			c0,0.92,0.02,1.82,0.05,2.71c0.03,0.89,0.07,1.76,0.11,2.62c-0.32-0.03-0.66-0.04-1.02-0.04c-0.36,0-0.7,0.01-1.02,0.04
			c0.04-0.86,0.08-1.73,0.12-2.62c0.03-0.89,0.05-1.79,0.05-2.71v-1.87c-0.75-0.01-1.47-0.02-2.17-0.03
			c-0.7-0.01-1.43-0.01-2.18-0.01c-0.75,0-1.47,0-2.17,0.01c-0.7,0.01-1.42,0.02-2.17,0.03v1.87c0,0.92,0.02,1.82,0.05,2.71
			c0.03,0.89,0.07,1.76,0.11,2.62c-0.32-0.03-0.66-0.04-1.02-0.04c-0.36,0-0.7,0.01-1.02,0.04c0.04-0.86,0.08-1.73,0.12-2.62
			c0.03-0.89,0.05-1.79,0.05-2.71v-3.58c0-0.92-0.02-1.81-0.05-2.7c-0.04-0.88-0.07-1.78-0.12-2.7c0.18,0.03,0.35,0.05,0.52,0.07
			c0.17,0.02,0.33,0.03,0.5,0.03c0.17,0,0.33-0.01,0.5-0.03c0.17-0.02,0.34-0.05,0.52-0.07c-0.04,0.92-0.08,1.81-0.11,2.7
			c-0.04,0.88-0.05,1.78-0.05,2.7v0.73c0.75,0.01,1.47,0.03,2.17,0.04c0.7,0.01,1.43,0.02,2.17,0.02c0.75,0,1.47-0.01,2.18-0.02
			c0.7-0.01,1.43-0.03,2.17-0.04v-0.73C693.92,67.52,693.9,66.62,693.87,65.74z"/>
		<path class="st0" d="M699.8,75.4c0.19,0.26,0.42,0.49,0.69,0.7c0.27,0.21,0.59,0.38,0.95,0.51c0.36,0.13,0.76,0.2,1.21,0.2
			c0.46,0,0.87-0.08,1.24-0.24c0.37-0.16,0.68-0.38,0.94-0.65c0.26-0.27,0.46-0.59,0.59-0.96c0.14-0.37,0.21-0.76,0.21-1.18
			c0-0.64-0.16-1.14-0.49-1.52c-0.33-0.37-0.73-0.69-1.22-0.94c-0.49-0.25-1.01-0.48-1.57-0.69c-0.56-0.21-1.09-0.47-1.57-0.78
			c-0.49-0.31-0.89-0.71-1.22-1.2c-0.33-0.49-0.49-1.14-0.49-1.96c0-0.58,0.1-1.11,0.31-1.59c0.21-0.48,0.51-0.89,0.9-1.24
			c0.39-0.35,0.87-0.62,1.43-0.81c0.55-0.19,1.18-0.29,1.87-0.29c0.67,0,1.24,0.08,1.73,0.24c0.49,0.16,0.94,0.41,1.35,0.74
			c-0.12,0.24-0.23,0.49-0.31,0.75c-0.08,0.26-0.17,0.6-0.25,1h-0.25c-0.07-0.19-0.16-0.41-0.28-0.63
			c-0.12-0.23-0.28-0.44-0.48-0.63c-0.2-0.19-0.44-0.36-0.72-0.49c-0.28-0.13-0.61-0.2-1-0.2c-0.39,0-0.75,0.06-1.07,0.19
			c-0.33,0.12-0.61,0.3-0.85,0.53c-0.24,0.23-0.43,0.5-0.56,0.82c-0.13,0.32-0.2,0.67-0.2,1.04c0,0.65,0.16,1.17,0.49,1.54
			c0.33,0.38,0.73,0.69,1.22,0.95c0.48,0.26,1.01,0.49,1.57,0.69c0.56,0.2,1.09,0.45,1.57,0.74c0.49,0.29,0.89,0.67,1.22,1.12
			c0.33,0.46,0.49,1.07,0.49,1.83c0,0.64-0.11,1.24-0.34,1.81c-0.23,0.57-0.56,1.06-1,1.49c-0.44,0.42-0.97,0.75-1.6,0.98
			c-0.63,0.23-1.35,0.34-2.15,0.34c-0.86,0-1.56-0.11-2.09-0.34c-0.53-0.23-0.98-0.49-1.34-0.78c0.12-0.32,0.21-0.61,0.26-0.86
			c0.05-0.26,0.09-0.59,0.13-0.99h0.25C699.46,74.89,699.61,75.14,699.8,75.4z"/>
		<path class="st0" d="M710.27,65.74c-0.04-0.88-0.07-1.78-0.11-2.7c0.18,0.03,0.35,0.05,0.52,0.07c0.17,0.02,0.33,0.03,0.5,0.03
			s0.33-0.01,0.5-0.03c0.17-0.02,0.34-0.05,0.52-0.07c-0.04,0.92-0.08,1.81-0.11,2.7c-0.04,0.88-0.05,1.78-0.05,2.7v3.58
			c0,0.92,0.02,1.82,0.05,2.71c0.04,0.89,0.07,1.76,0.11,2.62c-0.32-0.03-0.66-0.04-1.02-0.04c-0.36,0-0.7,0.01-1.02,0.04
			c0.04-0.86,0.08-1.73,0.11-2.62c0.03-0.89,0.05-1.79,0.05-2.71v-3.58C710.32,67.52,710.3,66.62,710.27,65.74z"/>
		<path class="st0" d="M716.2,75.4c0.19,0.26,0.42,0.49,0.69,0.7c0.27,0.21,0.59,0.38,0.95,0.51c0.36,0.13,0.76,0.2,1.21,0.2
			c0.46,0,0.87-0.08,1.24-0.24c0.37-0.16,0.68-0.38,0.94-0.65c0.26-0.27,0.46-0.59,0.59-0.96c0.14-0.37,0.21-0.76,0.21-1.18
			c0-0.64-0.16-1.14-0.49-1.52c-0.33-0.37-0.73-0.69-1.22-0.94c-0.49-0.25-1.01-0.48-1.57-0.69c-0.56-0.21-1.09-0.47-1.57-0.78
			c-0.49-0.31-0.89-0.71-1.22-1.2c-0.33-0.49-0.49-1.14-0.49-1.96c0-0.58,0.1-1.11,0.31-1.59c0.21-0.48,0.51-0.89,0.9-1.24
			c0.4-0.35,0.87-0.62,1.43-0.81c0.55-0.19,1.18-0.29,1.87-0.29c0.67,0,1.24,0.08,1.73,0.24c0.49,0.16,0.94,0.41,1.35,0.74
			c-0.12,0.24-0.23,0.49-0.31,0.75c-0.08,0.26-0.17,0.6-0.25,1h-0.25c-0.07-0.19-0.16-0.41-0.28-0.63
			c-0.12-0.23-0.28-0.44-0.48-0.63c-0.2-0.19-0.44-0.36-0.72-0.49c-0.28-0.13-0.61-0.2-1-0.2c-0.39,0-0.75,0.06-1.07,0.19
			c-0.33,0.12-0.61,0.3-0.85,0.53c-0.24,0.23-0.43,0.5-0.56,0.82c-0.13,0.32-0.2,0.67-0.2,1.04c0,0.65,0.16,1.17,0.49,1.54
			c0.33,0.38,0.73,0.69,1.22,0.95c0.49,0.26,1.01,0.49,1.57,0.69c0.56,0.2,1.08,0.45,1.57,0.74c0.49,0.29,0.89,0.67,1.22,1.12
			c0.33,0.46,0.49,1.07,0.49,1.83c0,0.64-0.11,1.24-0.34,1.81c-0.23,0.57-0.56,1.06-1,1.49c-0.44,0.42-0.97,0.75-1.6,0.98
			c-0.63,0.23-1.35,0.34-2.15,0.34c-0.86,0-1.56-0.11-2.09-0.34c-0.53-0.23-0.98-0.49-1.34-0.78c0.12-0.32,0.21-0.61,0.26-0.86
			c0.05-0.26,0.09-0.59,0.13-0.99h0.25C715.87,74.89,716.01,75.14,716.2,75.4z"/>
		<path class="st0" d="M736.89,76.86c-0.27,0.13-0.6,0.25-0.98,0.35c-0.38,0.1-0.81,0.2-1.28,0.28c-0.47,0.08-0.96,0.12-1.48,0.12
			c-1.1,0-2.11-0.16-3.04-0.47c-0.93-0.31-1.73-0.79-2.4-1.43c-0.67-0.64-1.2-1.42-1.58-2.34c-0.38-0.92-0.57-1.97-0.57-3.15
			c0-1.18,0.19-2.23,0.57-3.15c0.38-0.92,0.92-1.7,1.6-2.34c0.69-0.64,1.51-1.12,2.47-1.46c0.96-0.33,2.01-0.5,3.16-0.5
			c0.92,0,1.75,0.09,2.51,0.28c0.76,0.19,1.43,0.41,2.01,0.68c-0.11,0.19-0.2,0.46-0.27,0.79c-0.07,0.33-0.12,0.61-0.17,0.83
			l-0.12,0.04c-0.14-0.17-0.33-0.35-0.58-0.56c-0.25-0.21-0.54-0.41-0.87-0.6c-0.33-0.19-0.71-0.36-1.12-0.49
			c-0.42-0.13-0.88-0.2-1.38-0.2c-0.82,0-1.58,0.13-2.28,0.4c-0.7,0.26-1.31,0.67-1.83,1.22c-0.52,0.55-0.93,1.24-1.22,2.08
			c-0.29,0.84-0.44,1.83-0.44,2.99c0,1.15,0.14,2.15,0.44,2.99c0.29,0.84,0.7,1.53,1.22,2.08c0.52,0.55,1.13,0.95,1.83,1.22
			c0.7,0.26,1.46,0.4,2.28,0.4c0.5,0,0.96-0.06,1.38-0.19c0.42-0.12,0.81-0.27,1.17-0.45c0.35-0.17,0.67-0.36,0.96-0.56
			c0.29-0.2,0.52-0.38,0.72-0.53l0.08,0.08l-0.19,1.23C737.36,76.6,737.16,76.72,736.89,76.86z"/>
		<path class="st0" d="M751.06,65.74c-0.03-0.88-0.07-1.78-0.11-2.7c0.18,0.03,0.35,0.05,0.52,0.07c0.17,0.02,0.33,0.03,0.5,0.03
			c0.17,0,0.33-0.01,0.5-0.03c0.17-0.02,0.34-0.05,0.52-0.07c-0.04,0.92-0.08,1.81-0.11,2.7c-0.04,0.88-0.05,1.78-0.05,2.7v3.58
			c0,0.92,0.02,1.82,0.05,2.71c0.03,0.89,0.07,1.76,0.11,2.62c-0.32-0.03-0.66-0.04-1.02-0.04c-0.36,0-0.7,0.01-1.02,0.04
			c0.04-0.86,0.08-1.73,0.11-2.62c0.04-0.89,0.05-1.79,0.05-2.71v-1.87c-0.75-0.01-1.47-0.02-2.17-0.03
			c-0.7-0.01-1.43-0.01-2.18-0.01c-0.75,0-1.47,0-2.18,0.01c-0.7,0.01-1.42,0.02-2.17,0.03v1.87c0,0.92,0.02,1.82,0.05,2.71
			c0.04,0.89,0.07,1.76,0.12,2.62c-0.32-0.03-0.66-0.04-1.02-0.04c-0.36,0-0.7,0.01-1.02,0.04c0.04-0.86,0.08-1.73,0.12-2.62
			c0.03-0.89,0.05-1.79,0.05-2.71v-3.58c0-0.92-0.02-1.81-0.05-2.7c-0.03-0.88-0.07-1.78-0.12-2.7c0.18,0.03,0.35,0.05,0.52,0.07
			c0.17,0.02,0.33,0.03,0.5,0.03c0.17,0,0.33-0.01,0.5-0.03c0.16-0.02,0.34-0.05,0.52-0.07c-0.04,0.92-0.08,1.81-0.12,2.7
			c-0.03,0.88-0.05,1.78-0.05,2.7v0.73c0.75,0.01,1.47,0.03,2.17,0.04c0.7,0.01,1.43,0.02,2.18,0.02c0.75,0,1.47-0.01,2.18-0.02
			c0.7-0.01,1.42-0.03,2.17-0.04v-0.73C751.12,67.52,751.1,66.62,751.06,65.74z"/>
		<path class="st0" d="M756.95,65.71c-0.04-0.89-0.07-1.78-0.11-2.66c0.62,0.03,1.24,0.05,1.86,0.07c0.62,0.02,1.24,0.03,1.86,0.03
			c0.62,0,1.24-0.01,1.85-0.03c0.61-0.02,1.23-0.05,1.85-0.07c-0.04,0.21-0.06,0.42-0.06,0.62c0,0.21,0.02,0.42,0.06,0.62
			c-0.44-0.03-0.85-0.06-1.22-0.08c-0.37-0.03-0.76-0.06-1.17-0.08c-0.41-0.03-0.86-0.05-1.34-0.07c-0.48-0.02-1.07-0.03-1.75-0.03
			c-0.01,0.44-0.03,0.87-0.05,1.27c-0.02,0.4-0.03,0.86-0.03,1.37c0,0.54,0,1.07,0.01,1.58c0.01,0.51,0.01,0.9,0.01,1.17
			c0.61,0,1.16-0.01,1.64-0.02c0.49-0.01,0.93-0.03,1.33-0.05c0.4-0.02,0.77-0.04,1.11-0.06c0.34-0.02,0.66-0.04,0.97-0.07
			c-0.04,0.21-0.06,0.42-0.06,0.65c0,0.21,0.02,0.42,0.06,0.62c-0.36-0.04-0.78-0.08-1.26-0.1c-0.48-0.03-0.96-0.04-1.44-0.05
			c-0.48-0.01-0.93-0.01-1.35-0.02c-0.43-0.01-0.76-0.01-1.01-0.01c0,0.12,0,0.26-0.01,0.41c-0.01,0.15-0.01,0.33-0.01,0.55v0.81
			v1.25c0,0.79,0,1.44,0.01,1.96c0.01,0.51,0.02,0.9,0.03,1.17c0.46,0,0.94,0,1.46,0c0.53,0,1.04-0.01,1.55-0.03
			c0.51-0.02,0.98-0.05,1.44-0.08c0.45-0.03,0.84-0.09,1.18-0.16c-0.03,0.1-0.04,0.21-0.05,0.32c-0.01,0.12-0.01,0.22-0.01,0.32
			c0,0.22,0.02,0.4,0.06,0.54c-0.62-0.03-1.24-0.04-1.86-0.04c-0.62,0-1.25,0-1.88,0c-0.64,0-1.27,0-1.89,0
			c-0.62,0-1.25,0.01-1.89,0.04c0.04-0.89,0.08-1.77,0.11-2.65c0.04-0.88,0.05-1.78,0.05-2.69v-3.58
			C757.01,67.5,756.99,66.6,756.95,65.71z"/>
		<path class="st0" d="M773.4,75.4c0.19,0.26,0.42,0.49,0.69,0.7c0.27,0.21,0.59,0.38,0.95,0.51c0.36,0.13,0.76,0.2,1.21,0.2
			c0.46,0,0.87-0.08,1.24-0.24c0.37-0.16,0.68-0.38,0.94-0.65c0.26-0.27,0.45-0.59,0.59-0.96c0.14-0.37,0.21-0.76,0.21-1.18
			c0-0.64-0.16-1.14-0.49-1.52c-0.33-0.37-0.73-0.69-1.22-0.94c-0.49-0.25-1.01-0.48-1.57-0.69c-0.56-0.21-1.09-0.47-1.57-0.78
			c-0.49-0.31-0.89-0.71-1.22-1.2c-0.33-0.49-0.49-1.14-0.49-1.96c0-0.58,0.11-1.11,0.31-1.59c0.21-0.48,0.51-0.89,0.91-1.24
			c0.39-0.35,0.87-0.62,1.43-0.81c0.55-0.19,1.18-0.29,1.87-0.29c0.67,0,1.24,0.08,1.73,0.24c0.48,0.16,0.94,0.41,1.35,0.74
			c-0.12,0.24-0.23,0.49-0.31,0.75c-0.08,0.26-0.17,0.6-0.25,1h-0.25c-0.07-0.19-0.16-0.41-0.28-0.63
			c-0.12-0.23-0.28-0.44-0.48-0.63c-0.2-0.19-0.44-0.36-0.72-0.49c-0.28-0.13-0.61-0.2-1-0.2c-0.39,0-0.75,0.06-1.07,0.19
			c-0.33,0.12-0.61,0.3-0.86,0.53c-0.24,0.23-0.43,0.5-0.56,0.82c-0.13,0.32-0.2,0.67-0.2,1.04c0,0.65,0.16,1.17,0.49,1.54
			c0.33,0.38,0.73,0.69,1.22,0.95c0.48,0.26,1.01,0.49,1.57,0.69c0.56,0.2,1.09,0.45,1.57,0.74c0.48,0.29,0.89,0.67,1.22,1.12
			c0.33,0.46,0.49,1.07,0.49,1.83c0,0.64-0.11,1.24-0.34,1.81c-0.23,0.57-0.56,1.06-1,1.49c-0.44,0.42-0.97,0.75-1.6,0.98
			c-0.63,0.23-1.35,0.34-2.15,0.34c-0.86,0-1.56-0.11-2.09-0.34c-0.54-0.23-0.98-0.49-1.34-0.78c0.12-0.32,0.21-0.61,0.26-0.86
			c0.05-0.26,0.09-0.59,0.14-0.99h0.25C773.06,74.89,773.21,75.14,773.4,75.4z"/>
		<path class="st0" d="M786.75,64.13c-0.36,0-0.74,0-1.13,0.01c-0.39,0.01-0.79,0.02-1.19,0.04c-0.4,0.02-0.78,0.05-1.14,0.07
			c-0.37,0.03-0.7,0.06-0.99,0.1c0.07-0.25,0.1-0.47,0.1-0.67c0-0.15-0.04-0.37-0.1-0.65c0.92,0.03,1.81,0.05,2.68,0.07
			c0.88,0.02,1.77,0.03,2.69,0.03c0.92,0,1.81-0.01,2.69-0.03c0.87-0.02,1.77-0.05,2.68-0.07c-0.07,0.28-0.1,0.5-0.1,0.67
			c0,0.18,0.04,0.4,0.1,0.65c-0.29-0.04-0.62-0.08-0.99-0.1s-0.75-0.05-1.14-0.07c-0.4-0.02-0.79-0.03-1.19-0.04
			c-0.39-0.01-0.77-0.01-1.13-0.01c-0.04,1.43-0.06,2.87-0.06,4.31v3.58c0,0.92,0.02,1.82,0.05,2.71c0.04,0.89,0.07,1.76,0.12,2.62
			c-0.32-0.03-0.66-0.04-1.02-0.04c-0.36,0-0.7,0.01-1.02,0.04c0.04-0.86,0.08-1.73,0.11-2.62c0.04-0.89,0.05-1.79,0.05-2.71v-3.58
			C786.81,66.99,786.79,65.56,786.75,64.13z"/>
		<path class="st0" d="M805.54,77.34c-0.2-0.03-0.38-0.04-0.55-0.04c-0.18,0-0.36,0-0.55,0c-0.2,0-0.38,0-0.55,0
			c-0.17,0-0.36,0.01-0.55,0.04c-0.1-0.32-0.23-0.7-0.39-1.16c-0.17-0.45-0.35-0.92-0.55-1.42c-0.2-0.49-0.41-0.99-0.62-1.5
			c-0.21-0.51-0.4-0.99-0.58-1.45c-0.45-0.01-0.9-0.02-1.35-0.03c-0.46-0.01-0.92-0.01-1.37-0.01c-0.43,0-0.85,0-1.27,0.01
			c-0.41,0.01-0.84,0.02-1.27,0.03c-0.44,1.08-0.85,2.11-1.21,3.09c-0.36,0.98-0.63,1.79-0.81,2.43c-0.24-0.03-0.49-0.04-0.77-0.04
			c-0.28,0-0.54,0.01-0.77,0.04c1.12-2.43,2.22-4.84,3.29-7.24c1.07-2.4,2.14-4.84,3.23-7.33h0.39c0.33,0.8,0.7,1.68,1.08,2.61
			c0.39,0.94,0.78,1.88,1.19,2.84c0.4,0.96,0.8,1.91,1.21,2.85c0.4,0.94,0.78,1.82,1.13,2.63c0.35,0.81,0.67,1.54,0.96,2.18
			C805.13,76.53,805.36,77.01,805.54,77.34z M796.32,70.87c0.36,0,0.73,0.01,1.12,0.02c0.39,0.01,0.76,0.02,1.12,0.02
			c0.39,0,0.78,0,1.17-0.01c0.39-0.01,0.78-0.02,1.17-0.03l-2.31-5.29L796.32,70.87z"/>
		<path class="st0" d="M819.53,77.34c-0.2-0.03-0.38-0.04-0.55-0.04c-0.17,0-0.36,0-0.55,0c-0.19,0-0.38,0-0.55,0
			c-0.18,0-0.36,0.01-0.55,0.04c-0.1-0.32-0.23-0.7-0.39-1.16c-0.17-0.45-0.35-0.92-0.55-1.42c-0.2-0.49-0.41-0.99-0.61-1.5
			c-0.21-0.51-0.4-0.99-0.58-1.45c-0.44-0.01-0.89-0.02-1.35-0.03c-0.46-0.01-0.92-0.01-1.37-0.01c-0.43,0-0.85,0-1.27,0.01
			c-0.42,0.01-0.84,0.02-1.27,0.03c-0.45,1.08-0.85,2.11-1.21,3.09c-0.36,0.98-0.63,1.79-0.81,2.43c-0.24-0.03-0.49-0.04-0.77-0.04
			c-0.28,0-0.54,0.01-0.77,0.04c1.12-2.43,2.22-4.84,3.29-7.24c1.07-2.4,2.14-4.84,3.23-7.33h0.39c0.33,0.8,0.69,1.68,1.08,2.61
			c0.39,0.94,0.79,1.88,1.19,2.84c0.4,0.96,0.8,1.91,1.21,2.85c0.4,0.94,0.78,1.82,1.14,2.63c0.35,0.81,0.67,1.54,0.96,2.18
			C819.12,76.53,819.35,77.01,819.53,77.34z M810.31,70.87c0.36,0,0.74,0.01,1.12,0.02c0.39,0.01,0.76,0.02,1.12,0.02
			c0.39,0,0.78,0,1.17-0.01c0.39-0.01,0.78-0.02,1.16-0.03l-2.31-5.29L810.31,70.87z"/>
		<path class="st0" d="M823.32,64.13c-0.36,0-0.74,0-1.13,0.01c-0.4,0.01-0.79,0.02-1.19,0.04c-0.39,0.02-0.78,0.05-1.14,0.07
			c-0.37,0.03-0.7,0.06-0.99,0.1c0.07-0.25,0.1-0.47,0.1-0.67c0-0.15-0.04-0.37-0.1-0.65c0.92,0.03,1.81,0.05,2.68,0.07
			c0.88,0.02,1.77,0.03,2.69,0.03s1.81-0.01,2.69-0.03c0.87-0.02,1.77-0.05,2.68-0.07c-0.07,0.28-0.1,0.5-0.1,0.67
			c0,0.18,0.04,0.4,0.1,0.65c-0.29-0.04-0.62-0.08-0.99-0.1c-0.37-0.03-0.75-0.05-1.14-0.07c-0.4-0.02-0.79-0.03-1.19-0.04
			c-0.39-0.01-0.77-0.01-1.13-0.01c-0.04,1.43-0.06,2.87-0.06,4.31v3.58c0,0.92,0.02,1.82,0.05,2.71c0.04,0.89,0.07,1.76,0.11,2.62
			c-0.32-0.03-0.66-0.04-1.02-0.04c-0.36,0-0.7,0.01-1.02,0.04c0.04-0.86,0.08-1.73,0.12-2.62c0.03-0.89,0.05-1.79,0.05-2.71v-3.58
			C823.38,66.99,823.36,65.56,823.32,64.13z"/>
		<path class="st0" d="M832.15,75.4c0.19,0.26,0.42,0.49,0.69,0.7c0.27,0.21,0.59,0.38,0.95,0.51c0.36,0.13,0.76,0.2,1.21,0.2
			c0.46,0,0.87-0.08,1.24-0.24c0.37-0.16,0.68-0.38,0.94-0.65c0.26-0.27,0.46-0.59,0.59-0.96c0.14-0.37,0.21-0.76,0.21-1.18
			c0-0.64-0.16-1.14-0.49-1.52c-0.33-0.37-0.73-0.69-1.22-0.94c-0.49-0.25-1.01-0.48-1.57-0.69c-0.56-0.21-1.09-0.47-1.57-0.78
			c-0.48-0.31-0.89-0.71-1.22-1.2c-0.33-0.49-0.49-1.14-0.49-1.96c0-0.58,0.1-1.11,0.31-1.59c0.21-0.48,0.51-0.89,0.9-1.24
			c0.39-0.35,0.87-0.62,1.43-0.81c0.55-0.19,1.18-0.29,1.87-0.29c0.67,0,1.24,0.08,1.73,0.24c0.49,0.16,0.94,0.41,1.36,0.74
			c-0.12,0.24-0.23,0.49-0.31,0.75c-0.08,0.26-0.17,0.6-0.25,1h-0.25c-0.07-0.19-0.16-0.41-0.28-0.63
			c-0.12-0.23-0.28-0.44-0.48-0.63c-0.2-0.19-0.44-0.36-0.72-0.49c-0.28-0.13-0.61-0.2-1-0.2c-0.39,0-0.74,0.06-1.07,0.19
			s-0.61,0.3-0.85,0.53c-0.24,0.23-0.43,0.5-0.56,0.82c-0.13,0.32-0.2,0.67-0.2,1.04c0,0.65,0.16,1.17,0.49,1.54
			c0.33,0.38,0.73,0.69,1.22,0.95c0.49,0.26,1.01,0.49,1.57,0.69c0.56,0.2,1.09,0.45,1.57,0.74c0.49,0.29,0.89,0.67,1.22,1.12
			c0.33,0.46,0.49,1.07,0.49,1.83c0,0.64-0.12,1.24-0.34,1.81c-0.23,0.57-0.56,1.06-1,1.49c-0.44,0.42-0.97,0.75-1.6,0.98
			c-0.63,0.23-1.35,0.34-2.15,0.34c-0.86,0-1.56-0.11-2.09-0.34c-0.54-0.23-0.98-0.49-1.34-0.78c0.12-0.32,0.21-0.61,0.26-0.86
			c0.05-0.26,0.09-0.59,0.13-0.99h0.25C831.81,74.89,831.97,75.14,832.15,75.4z"/>
		<path class="st0" d="M846.69,71.85v1.29h-5.18v-1.29H846.69z"/>
		<path class="st0" d="M866.42,65.25c-0.01-1.07-0.05-1.8-0.11-2.21c0.15,0.03,0.3,0.05,0.44,0.07c0.14,0.02,0.28,0.03,0.42,0.03
			c0.18,0,0.39-0.03,0.62-0.1c-0.04,0.49-0.08,1.06-0.12,1.74c-0.04,0.67-0.08,1.39-0.1,2.16c-0.03,0.77-0.06,1.56-0.08,2.37
			c-0.03,0.81-0.05,1.6-0.06,2.36c-0.01,0.93-0.15,1.76-0.43,2.5c-0.27,0.74-0.66,1.36-1.16,1.87c-0.5,0.51-1.11,0.9-1.84,1.17
			c-0.73,0.26-1.56,0.4-2.51,0.4c-2.08,0-3.59-0.47-4.54-1.42c-0.94-0.94-1.42-2.44-1.42-4.47c0-0.65,0.02-1.23,0.05-1.74
			c0.03-0.51,0.05-1.02,0.05-1.55c0-1.17-0.01-2.2-0.04-3.1c-0.03-0.9-0.05-1.66-0.08-2.29c0.17,0.03,0.35,0.05,0.54,0.07
			c0.19,0.02,0.38,0.03,0.54,0.03c0.15,0,0.3-0.01,0.45-0.03c0.14-0.02,0.29-0.05,0.45-0.07c-0.03,0.31-0.05,0.7-0.08,1.2
			c-0.03,0.49-0.05,1.05-0.08,1.68c-0.03,0.62-0.05,1.3-0.06,2.02c-0.01,0.72-0.02,1.47-0.02,2.25c0,0.47,0.01,0.96,0.02,1.47
			c0.01,0.51,0.06,1,0.14,1.48c0.08,0.48,0.22,0.94,0.41,1.37c0.19,0.44,0.46,0.82,0.8,1.15c0.35,0.33,0.78,0.58,1.31,0.77
			c0.53,0.19,1.18,0.28,1.96,0.28c0.76,0,1.4-0.11,1.92-0.33c0.52-0.22,0.95-0.51,1.28-0.87c0.33-0.36,0.59-0.78,0.78-1.25
			c0.19-0.47,0.32-0.96,0.41-1.48c0.08-0.51,0.13-1.03,0.15-1.54c0.01-0.51,0.02-0.98,0.02-1.42
			C866.44,67.84,866.44,66.32,866.42,65.25z"/>
		<path class="st0" d="M878.52,71.94c-1.8-1.94-3.61-3.86-5.41-5.78c-0.01,0.39-0.03,0.91-0.04,1.56c-0.02,0.65-0.02,1.54-0.02,2.66
			c0,0.29,0,0.65,0.01,1.08c0.01,0.43,0.01,0.88,0.02,1.35c0.01,0.47,0.02,0.95,0.03,1.44c0.01,0.49,0.03,0.94,0.04,1.35
			c0.01,0.42,0.03,0.78,0.04,1.09c0.01,0.31,0.03,0.52,0.04,0.63c-0.22-0.03-0.47-0.04-0.73-0.04c-0.28,0-0.53,0.01-0.77,0.04
			c0.03-0.14,0.06-0.4,0.1-0.77c0.03-0.37,0.06-0.82,0.09-1.34c0.03-0.52,0.06-1.09,0.09-1.7c0.03-0.61,0.06-1.22,0.08-1.83
			c0.02-0.61,0.04-1.21,0.05-1.79c0.01-0.58,0.02-1.1,0.02-1.56c0-1.33,0-2.48-0.01-3.43c-0.01-0.96-0.03-1.67-0.05-2.14h0.33
			c0.85,0.92,1.75,1.9,2.71,2.95c0.96,1.05,1.92,2.08,2.87,3.1c0.95,1.02,1.85,1.98,2.71,2.89c0.85,0.91,1.6,1.68,2.24,2.32V71.2
			c0-1.46-0.01-2.88-0.03-4.26c-0.02-1.38-0.07-2.68-0.13-3.9c0.28,0.07,0.51,0.1,0.71,0.1c0.17,0,0.39-0.03,0.67-0.1
			c-0.03,0.31-0.06,0.76-0.09,1.37c-0.04,0.61-0.07,1.26-0.1,1.96c-0.04,0.69-0.07,1.37-0.09,2.04c-0.03,0.67-0.04,1.2-0.04,1.6
			c0,0.35,0,0.76,0,1.25c0,0.47,0,0.96,0.01,1.48c0.01,0.51,0.01,1.03,0.02,1.55c0.01,0.52,0.01,1.01,0.02,1.46
			c0.01,0.45,0.01,0.84,0.01,1.18c0,0.31,0,0.53,0,0.69h-0.29C882.02,75.77,880.32,73.88,878.52,71.94z"/>
		<path class="st0" d="M888.14,65.74c-0.04-0.88-0.07-1.78-0.12-2.7c0.53,0.03,1.05,0.05,1.57,0.07c0.52,0.02,1.04,0.03,1.57,0.03
			c0.53,0,1.05-0.02,1.57-0.05c0.52-0.03,1.04-0.05,1.57-0.05c1.22,0,2.27,0.16,3.13,0.48c0.87,0.32,1.58,0.77,2.13,1.36
			c0.55,0.59,0.96,1.31,1.22,2.16c0.26,0.85,0.38,1.81,0.38,2.88c0,1.39-0.24,2.56-0.72,3.51c-0.48,0.95-1.09,1.72-1.83,2.3
			c-0.74,0.58-1.56,1-2.46,1.24c-0.89,0.24-1.75,0.36-2.57,0.36c-0.47,0-0.94-0.01-1.39-0.02c-0.46-0.01-0.92-0.02-1.39-0.02
			c-0.47,0-0.94,0-1.39,0c-0.46,0-0.92,0.01-1.39,0.04c0.04-0.86,0.08-1.73,0.12-2.62c0.03-0.89,0.05-1.79,0.05-2.71v-3.58
			C888.19,67.52,888.17,66.62,888.14,65.74z M890.02,76.43c0.29,0.07,0.69,0.12,1.19,0.16c0.5,0.03,1.01,0.05,1.54,0.05
			c0.76,0,1.53-0.09,2.29-0.27c0.76-0.18,1.45-0.52,2.05-1.02c0.6-0.5,1.1-1.18,1.48-2.05c0.38-0.87,0.57-1.99,0.57-3.36
			c0-1.21-0.15-2.2-0.45-2.98c-0.3-0.78-0.71-1.39-1.23-1.84c-0.52-0.45-1.14-0.76-1.86-0.94c-0.72-0.17-1.51-0.26-2.37-0.26
			c-0.62,0-1.21,0.02-1.75,0.06c-0.54,0.04-1.03,0.09-1.46,0.15c-0.04,0.67-0.07,1.36-0.09,2.09c-0.02,0.73-0.03,1.47-0.03,2.22
			v3.58C889.9,73.51,889.94,74.99,890.02,76.43z"/>
		<path class="st0" d="M531.08,90.75c-0.01-1.07-0.05-1.8-0.1-2.21c0.15,0.03,0.3,0.05,0.44,0.07c0.14,0.02,0.28,0.03,0.42,0.03
			c0.18,0,0.39-0.03,0.62-0.1c-0.04,0.49-0.08,1.06-0.12,1.74c-0.04,0.67-0.08,1.39-0.1,2.16c-0.03,0.77-0.06,1.56-0.08,2.37
			c-0.03,0.81-0.05,1.6-0.06,2.36c-0.01,0.93-0.16,1.76-0.43,2.5c-0.27,0.74-0.66,1.36-1.16,1.87c-0.5,0.51-1.11,0.9-1.84,1.17
			c-0.73,0.26-1.57,0.39-2.51,0.39c-2.08,0-3.59-0.47-4.54-1.42c-0.94-0.94-1.41-2.43-1.41-4.47c0-0.65,0.02-1.23,0.05-1.74
			c0.04-0.51,0.05-1.02,0.05-1.55c0-1.16-0.01-2.2-0.04-3.1c-0.03-0.9-0.06-1.66-0.08-2.29c0.17,0.03,0.35,0.05,0.54,0.07
			c0.19,0.02,0.38,0.03,0.54,0.03c0.15,0,0.3-0.01,0.45-0.03c0.15-0.02,0.3-0.04,0.45-0.07c-0.03,0.31-0.05,0.71-0.08,1.2
			c-0.03,0.49-0.06,1.05-0.08,1.67c-0.03,0.62-0.05,1.3-0.06,2.02c-0.01,0.72-0.02,1.47-0.02,2.25c0,0.47,0.01,0.96,0.02,1.47
			c0.01,0.51,0.06,1,0.15,1.48c0.08,0.48,0.22,0.94,0.41,1.37c0.19,0.44,0.46,0.82,0.8,1.15c0.35,0.33,0.78,0.58,1.31,0.77
			c0.53,0.19,1.18,0.28,1.96,0.28c0.76,0,1.4-0.11,1.92-0.33c0.52-0.22,0.95-0.51,1.28-0.87c0.33-0.36,0.59-0.78,0.78-1.25
			c0.19-0.47,0.32-0.96,0.41-1.48c0.08-0.51,0.13-1.03,0.15-1.54s0.02-0.99,0.02-1.42C531.1,93.34,531.09,91.82,531.08,90.75z"/>
		<path class="st0" d="M543.17,97.45c-1.8-1.94-3.61-3.86-5.41-5.77c-0.01,0.39-0.03,0.91-0.04,1.56c-0.01,0.65-0.02,1.54-0.02,2.67
			c0,0.29,0,0.65,0.01,1.08c0.01,0.43,0.01,0.88,0.02,1.35c0.01,0.47,0.02,0.95,0.03,1.44c0.01,0.49,0.03,0.94,0.04,1.35
			c0.01,0.41,0.03,0.78,0.04,1.09c0.01,0.31,0.03,0.52,0.04,0.63c-0.22-0.03-0.46-0.04-0.73-0.04c-0.28,0-0.54,0.01-0.77,0.04
			c0.03-0.14,0.06-0.4,0.09-0.77c0.04-0.37,0.07-0.82,0.09-1.34c0.03-0.52,0.06-1.08,0.09-1.7c0.04-0.61,0.06-1.22,0.08-1.83
			c0.02-0.61,0.04-1.21,0.05-1.79c0.01-0.58,0.02-1.1,0.02-1.56c0-1.33,0-2.48-0.01-3.43c-0.01-0.96-0.02-1.67-0.05-2.14h0.33
			c0.85,0.92,1.75,1.9,2.72,2.95c0.96,1.05,1.92,2.08,2.87,3.1c0.95,1.02,1.85,1.98,2.71,2.89c0.85,0.91,1.6,1.68,2.24,2.32v-2.83
			c0-1.46-0.01-2.87-0.03-4.26c-0.02-1.38-0.07-2.68-0.13-3.9c0.28,0.07,0.51,0.1,0.71,0.1c0.17,0,0.39-0.03,0.67-0.1
			c-0.03,0.31-0.06,0.76-0.09,1.37c-0.04,0.61-0.07,1.26-0.1,1.96c-0.03,0.69-0.07,1.37-0.09,2.04c-0.03,0.67-0.04,1.2-0.04,1.6
			c0,0.35,0,0.76,0,1.25c0,0.47,0,0.96,0.01,1.48c0.01,0.51,0.01,1.03,0.02,1.55c0.01,0.52,0.01,1.01,0.02,1.46
			c0.01,0.45,0.01,0.84,0.01,1.18c0,0.3,0,0.53,0,0.69h-0.29C546.67,101.27,544.97,99.38,543.17,97.45z"/>
		<path class="st0" d="M552.8,91.24c-0.04-0.88-0.07-1.78-0.12-2.7c0.18,0.03,0.35,0.05,0.52,0.07c0.17,0.02,0.33,0.03,0.5,0.03
			s0.33-0.01,0.5-0.03c0.17-0.02,0.34-0.04,0.52-0.07c-0.04,0.92-0.08,1.81-0.12,2.7c-0.04,0.88-0.05,1.78-0.05,2.69v3.58
			c0,0.92,0.02,1.82,0.05,2.71c0.04,0.89,0.07,1.76,0.12,2.62c-0.32-0.03-0.66-0.04-1.02-0.04c-0.36,0-0.7,0.01-1.02,0.04
			c0.04-0.86,0.08-1.73,0.12-2.62c0.04-0.89,0.05-1.79,0.05-2.71v-3.58C552.85,93.02,552.83,92.13,552.8,91.24z"/>
		<path class="st0" d="M561.69,99.89c-0.46-1.15-0.95-2.37-1.47-3.64c-0.52-1.28-1.05-2.58-1.6-3.91c-0.55-1.33-1.07-2.59-1.57-3.79
			c0.19,0.03,0.38,0.05,0.56,0.07c0.18,0.02,0.35,0.03,0.52,0.03c0.17,0,0.34-0.01,0.52-0.03c0.18-0.02,0.37-0.04,0.56-0.07
			c0.31,0.92,0.64,1.88,1.01,2.88c0.37,1.01,0.76,2.03,1.16,3.07c0.41,1.04,0.83,2.09,1.26,3.16c0.43,1.07,0.87,2.13,1.31,3.19
			c0.25-0.57,0.52-1.2,0.81-1.9c0.29-0.7,0.59-1.43,0.88-2.19c0.3-0.76,0.59-1.53,0.89-2.31c0.29-0.78,0.57-1.54,0.84-2.26
			c0.27-0.72,0.52-1.4,0.74-2.02c0.22-0.62,0.41-1.16,0.56-1.62c0.31,0.07,0.56,0.1,0.77,0.1c0.21,0,0.46-0.03,0.77-0.1
			c-1.08,2.41-2.12,4.81-3.12,7.18c-1,2.37-1.96,4.75-2.87,7.12c-0.22-0.03-0.45-0.04-0.69-0.04c-0.28,0-0.51,0.01-0.69,0.04
			C562.54,102.03,562.15,101.04,561.69,99.89z"/>
		<path class="st0" d="M572.67,91.21c-0.03-0.89-0.07-1.78-0.11-2.66c0.62,0.03,1.25,0.05,1.86,0.07c0.62,0.02,1.24,0.03,1.86,0.03
			c0.62,0,1.24-0.01,1.85-0.03c0.61-0.02,1.23-0.04,1.85-0.07c-0.04,0.21-0.06,0.42-0.06,0.62c0,0.21,0.02,0.42,0.06,0.62
			c-0.44-0.03-0.85-0.06-1.22-0.08c-0.37-0.03-0.76-0.06-1.17-0.08c-0.41-0.03-0.86-0.05-1.34-0.07c-0.49-0.02-1.07-0.03-1.75-0.03
			c-0.01,0.44-0.03,0.87-0.05,1.27c-0.02,0.4-0.03,0.86-0.03,1.37c0,0.54,0,1.07,0.01,1.58c0.01,0.51,0.01,0.9,0.01,1.17
			c0.61,0,1.16-0.01,1.64-0.02c0.49-0.01,0.93-0.03,1.33-0.05c0.4-0.02,0.77-0.04,1.11-0.06c0.34-0.02,0.66-0.04,0.97-0.07
			c-0.04,0.21-0.06,0.42-0.06,0.64c0,0.21,0.02,0.42,0.06,0.62c-0.36-0.04-0.78-0.08-1.26-0.11c-0.48-0.03-0.96-0.04-1.44-0.05
			c-0.48-0.01-0.93-0.01-1.35-0.02c-0.42-0.01-0.76-0.01-1.01-0.01c0,0.12,0,0.26-0.01,0.41c-0.01,0.14-0.01,0.33-0.01,0.55v0.81
			v1.25c0,0.79,0,1.44,0.01,1.96c0.01,0.51,0.02,0.9,0.03,1.17c0.46,0,0.94,0,1.46,0c0.53,0,1.04-0.01,1.55-0.03
			c0.51-0.02,0.99-0.05,1.44-0.08c0.45-0.04,0.84-0.09,1.18-0.16c-0.03,0.1-0.05,0.21-0.05,0.32c-0.01,0.12-0.01,0.22-0.01,0.32
			c0,0.22,0.02,0.4,0.06,0.54c-0.62-0.03-1.25-0.04-1.86-0.04c-0.62,0-1.25,0-1.88,0c-0.64,0-1.27,0-1.89,0
			c-0.62,0-1.25,0.01-1.89,0.04c0.04-0.89,0.08-1.77,0.11-2.65c0.03-0.88,0.05-1.78,0.05-2.7v-3.58
			C572.72,93,572.71,92.1,572.67,91.21z"/>
		<path class="st0" d="M583.18,91.24c-0.04-0.88-0.07-1.78-0.11-2.7c0.4,0.03,0.8,0.05,1.19,0.07c0.39,0.02,0.78,0.03,1.19,0.03
			c0.4,0,0.8-0.02,1.19-0.05c0.39-0.04,0.78-0.05,1.19-0.05c0.58,0,1.14,0.06,1.67,0.17c0.53,0.11,0.99,0.29,1.38,0.55
			c0.4,0.26,0.71,0.59,0.94,1.01c0.23,0.42,0.34,0.94,0.34,1.56c0,0.67-0.15,1.24-0.45,1.72c-0.3,0.48-0.66,0.87-1.09,1.19
			c-0.43,0.31-0.89,0.56-1.38,0.73c-0.49,0.17-0.94,0.29-1.34,0.34c0.17,0.21,0.4,0.5,0.69,0.87c0.29,0.37,0.62,0.79,0.98,1.24
			c0.36,0.45,0.73,0.92,1.12,1.41c0.39,0.49,0.76,0.96,1.12,1.42c0.36,0.45,0.7,0.86,1.02,1.24c0.32,0.37,0.57,0.66,0.77,0.85
			c-0.21-0.03-0.42-0.04-0.62-0.04c-0.21,0-0.42,0-0.62,0c-0.2,0-0.4,0-0.6,0s-0.41,0.01-0.6,0.04c-0.21-0.29-0.53-0.73-0.95-1.31
			c-0.42-0.58-0.89-1.21-1.4-1.87c-0.51-0.67-1.04-1.33-1.57-1.99c-0.54-0.66-1.02-1.22-1.47-1.68h-0.79v1.52
			c0,0.92,0.02,1.82,0.05,2.71c0.04,0.89,0.07,1.76,0.12,2.62c-0.32-0.03-0.66-0.04-1.02-0.04c-0.36,0-0.7,0.01-1.02,0.04
			c0.04-0.86,0.08-1.73,0.11-2.62c0.03-0.89,0.05-1.79,0.05-2.71v-3.58C583.24,93.02,583.22,92.13,583.18,91.24z M585.58,95.21
			c0.23,0.01,0.48,0.02,0.76,0.02c0.43,0,0.88-0.05,1.34-0.14c0.46-0.1,0.89-0.27,1.28-0.51c0.39-0.24,0.71-0.57,0.97-0.98
			c0.26-0.41,0.38-0.93,0.38-1.55c0-0.54-0.1-0.99-0.3-1.34c-0.2-0.35-0.46-0.64-0.78-0.84c-0.32-0.21-0.67-0.35-1.04-0.43
			c-0.38-0.08-0.74-0.11-1.1-0.11c-0.49,0-0.89,0.01-1.21,0.03c-0.32,0.02-0.59,0.05-0.81,0.07c-0.03,0.76-0.05,1.52-0.08,2.27
			c-0.03,0.75-0.04,1.5-0.04,2.25v1.19C585.14,95.17,585.35,95.2,585.58,95.21z"/>
		<path class="st0" d="M596.05,100.9c0.19,0.26,0.42,0.49,0.69,0.7c0.27,0.21,0.59,0.38,0.95,0.51c0.36,0.13,0.76,0.2,1.21,0.2
			c0.46,0,0.87-0.08,1.24-0.24c0.37-0.16,0.68-0.37,0.94-0.65c0.26-0.27,0.45-0.59,0.59-0.96c0.14-0.37,0.21-0.76,0.21-1.17
			c0-0.64-0.16-1.14-0.49-1.52c-0.33-0.38-0.73-0.69-1.22-0.94c-0.48-0.25-1.01-0.48-1.57-0.69c-0.56-0.21-1.09-0.47-1.57-0.78
			c-0.49-0.31-0.89-0.71-1.22-1.2c-0.33-0.49-0.49-1.14-0.49-1.96c0-0.58,0.11-1.11,0.31-1.59c0.21-0.48,0.51-0.89,0.91-1.24
			c0.39-0.35,0.87-0.62,1.42-0.81c0.56-0.19,1.18-0.29,1.87-0.29c0.67,0,1.24,0.08,1.73,0.24c0.49,0.16,0.94,0.41,1.35,0.74
			c-0.12,0.24-0.23,0.49-0.31,0.75c-0.08,0.26-0.17,0.6-0.25,1h-0.25c-0.07-0.19-0.16-0.41-0.28-0.63
			c-0.12-0.23-0.28-0.44-0.48-0.64c-0.2-0.19-0.44-0.36-0.72-0.49c-0.28-0.13-0.61-0.2-1-0.2s-0.75,0.06-1.07,0.19
			c-0.33,0.12-0.61,0.3-0.85,0.53c-0.24,0.23-0.43,0.5-0.56,0.82c-0.13,0.32-0.2,0.67-0.2,1.04c0,0.65,0.16,1.17,0.49,1.54
			c0.33,0.37,0.73,0.69,1.22,0.95c0.48,0.26,1.01,0.49,1.57,0.69c0.56,0.2,1.09,0.45,1.57,0.74c0.48,0.29,0.89,0.66,1.22,1.12
			c0.33,0.46,0.49,1.07,0.49,1.83c0,0.64-0.11,1.24-0.34,1.81c-0.23,0.57-0.56,1.06-1,1.49c-0.44,0.42-0.97,0.75-1.6,0.98
			c-0.63,0.23-1.35,0.34-2.15,0.34c-0.86,0-1.56-0.11-2.09-0.34c-0.53-0.23-0.98-0.49-1.34-0.78c0.12-0.32,0.21-0.61,0.26-0.86
			c0.05-0.26,0.09-0.59,0.14-0.99h0.25C595.71,100.39,595.86,100.64,596.05,100.9z"/>
		<path class="st0" d="M606.52,91.24c-0.04-0.88-0.07-1.78-0.11-2.7c0.18,0.03,0.35,0.05,0.52,0.07c0.17,0.02,0.33,0.03,0.5,0.03
			c0.17,0,0.33-0.01,0.5-0.03c0.17-0.02,0.34-0.04,0.52-0.07c-0.04,0.92-0.08,1.81-0.11,2.7c-0.03,0.88-0.05,1.78-0.05,2.69v3.58
			c0,0.92,0.02,1.82,0.05,2.71c0.04,0.89,0.07,1.76,0.11,2.62c-0.32-0.03-0.66-0.04-1.02-0.04c-0.36,0-0.7,0.01-1.02,0.04
			c0.04-0.86,0.08-1.73,0.11-2.62c0.03-0.89,0.05-1.79,0.05-2.71v-3.58C606.57,93.02,606.55,92.13,606.52,91.24z"/>
		<path class="st0" d="M615.29,89.63c-0.36,0-0.74,0-1.14,0.01c-0.39,0.01-0.79,0.02-1.19,0.04c-0.4,0.02-0.78,0.05-1.14,0.07
			c-0.37,0.03-0.7,0.06-0.99,0.1c0.07-0.25,0.1-0.47,0.1-0.67c0-0.15-0.03-0.37-0.1-0.65c0.92,0.03,1.81,0.05,2.68,0.07
			c0.87,0.02,1.77,0.03,2.69,0.03c0.91,0,1.81-0.01,2.68-0.03c0.87-0.02,1.77-0.04,2.68-0.07c-0.07,0.28-0.1,0.5-0.1,0.67
			c0,0.18,0.04,0.39,0.1,0.64c-0.29-0.04-0.62-0.08-0.99-0.1c-0.37-0.03-0.75-0.05-1.14-0.07c-0.4-0.02-0.79-0.03-1.19-0.04
			c-0.39-0.01-0.77-0.01-1.13-0.01c-0.04,1.43-0.06,2.87-0.06,4.31v3.58c0,0.92,0.02,1.82,0.05,2.71c0.03,0.89,0.07,1.76,0.12,2.62
			c-0.32-0.03-0.66-0.04-1.02-0.04c-0.36,0-0.7,0.01-1.02,0.04c0.04-0.86,0.08-1.73,0.11-2.62c0.04-0.89,0.05-1.79,0.05-2.71v-3.58
			C615.35,92.5,615.33,91.06,615.29,89.63z"/>
		<path class="st0" d="M630.44,90.89c0.39,0.94,0.78,1.88,1.19,2.84c0.4,0.96,0.8,1.91,1.21,2.85c0.4,0.94,0.78,1.82,1.13,2.63
			c0.35,0.81,0.67,1.54,0.96,2.17c0.28,0.64,0.52,1.12,0.7,1.46c-0.19-0.03-0.38-0.04-0.55-0.04c-0.17,0-0.36,0-0.55,0
			c-0.19,0-0.38,0-0.55,0c-0.17,0-0.36,0.01-0.55,0.04c-0.1-0.32-0.23-0.71-0.39-1.15c-0.17-0.45-0.35-0.92-0.55-1.42
			c-0.2-0.49-0.41-0.99-0.61-1.5c-0.21-0.5-0.4-0.99-0.58-1.45c-0.45-0.01-0.89-0.02-1.35-0.03c-0.46-0.01-0.92-0.01-1.37-0.01
			c-0.43,0-0.85,0-1.27,0.01c-0.42,0.01-0.84,0.02-1.27,0.03c-0.45,1.08-0.85,2.11-1.21,3.09c-0.36,0.98-0.63,1.79-0.81,2.43
			c-0.24-0.03-0.49-0.04-0.77-0.04s-0.54,0.01-0.77,0.04c1.12-2.43,2.22-4.84,3.29-7.24c1.07-2.4,2.14-4.84,3.23-7.33h0.4
			C629.69,89.08,630.05,89.95,630.44,90.89z M626.24,85.22c0.21-0.21,0.46-0.31,0.75-0.31c0.29,0,0.54,0.1,0.75,0.31
			c0.21,0.21,0.31,0.46,0.31,0.75c0,0.29-0.1,0.54-0.31,0.75c-0.21,0.21-0.46,0.31-0.75,0.31c-0.29,0-0.54-0.1-0.75-0.31
			c-0.21-0.21-0.31-0.46-0.31-0.75C625.92,85.68,626.03,85.43,626.24,85.22z M626.4,96.37c0.36,0,0.74,0.01,1.12,0.02
			c0.39,0.01,0.76,0.02,1.12,0.02c0.39,0,0.78,0,1.17-0.01c0.39-0.01,0.78-0.02,1.17-0.03l-2.31-5.29L626.4,96.37z M630.34,85.22
			c0.21-0.21,0.46-0.31,0.75-0.31s0.54,0.1,0.75,0.31c0.21,0.21,0.31,0.46,0.31,0.75c0,0.29-0.1,0.54-0.31,0.75
			c-0.21,0.21-0.46,0.31-0.75,0.31s-0.54-0.1-0.75-0.31c-0.21-0.21-0.31-0.46-0.31-0.75C630.02,85.68,630.13,85.43,630.34,85.22z"/>
		<path class="st0" d="M640.95,89.63c-0.36,0-0.74,0-1.13,0.01c-0.39,0.01-0.79,0.02-1.19,0.04c-0.4,0.02-0.78,0.05-1.15,0.07
			c-0.37,0.03-0.7,0.06-0.99,0.1c0.07-0.25,0.1-0.47,0.1-0.67c0-0.15-0.04-0.37-0.1-0.65c0.92,0.03,1.81,0.05,2.68,0.07
			c0.87,0.02,1.77,0.03,2.69,0.03c0.91,0,1.81-0.01,2.68-0.03c0.87-0.02,1.77-0.04,2.68-0.07c-0.07,0.28-0.1,0.5-0.1,0.67
			c0,0.18,0.03,0.39,0.1,0.64c-0.29-0.04-0.62-0.08-0.99-0.1c-0.37-0.03-0.75-0.05-1.14-0.07c-0.4-0.02-0.79-0.03-1.19-0.04
			c-0.4-0.01-0.77-0.01-1.13-0.01c-0.04,1.43-0.06,2.87-0.06,4.31v3.58c0,0.92,0.02,1.82,0.05,2.71c0.04,0.89,0.07,1.76,0.12,2.62
			c-0.32-0.03-0.66-0.04-1.02-0.04c-0.36,0-0.7,0.01-1.02,0.04c0.04-0.86,0.08-1.73,0.11-2.62c0.04-0.89,0.05-1.79,0.05-2.71v-3.58
			C641.01,92.5,640.99,91.06,640.95,89.63z"/>
		<path class="st0" d="M649.79,100.9c0.19,0.26,0.42,0.49,0.69,0.7c0.27,0.21,0.59,0.38,0.95,0.51c0.36,0.13,0.76,0.2,1.21,0.2
			c0.46,0,0.87-0.08,1.24-0.24c0.37-0.16,0.68-0.37,0.94-0.65c0.26-0.27,0.45-0.59,0.59-0.96c0.14-0.37,0.21-0.76,0.21-1.17
			c0-0.64-0.16-1.14-0.49-1.52c-0.33-0.38-0.73-0.69-1.22-0.94c-0.49-0.25-1.01-0.48-1.57-0.69c-0.56-0.21-1.09-0.47-1.57-0.78
			c-0.49-0.31-0.89-0.71-1.22-1.2c-0.33-0.49-0.49-1.14-0.49-1.96c0-0.58,0.1-1.11,0.31-1.59c0.21-0.48,0.51-0.89,0.91-1.24
			c0.4-0.35,0.87-0.62,1.43-0.81c0.55-0.19,1.18-0.29,1.87-0.29c0.67,0,1.24,0.08,1.73,0.24c0.49,0.16,0.94,0.41,1.35,0.74
			c-0.12,0.24-0.23,0.49-0.31,0.75c-0.08,0.26-0.17,0.6-0.25,1h-0.25c-0.07-0.19-0.16-0.41-0.28-0.63
			c-0.12-0.23-0.28-0.44-0.48-0.64c-0.2-0.19-0.44-0.36-0.72-0.49c-0.28-0.13-0.61-0.2-1-0.2c-0.39,0-0.75,0.06-1.07,0.19
			c-0.33,0.12-0.61,0.3-0.85,0.53c-0.24,0.23-0.43,0.5-0.56,0.82c-0.13,0.32-0.2,0.67-0.2,1.04c0,0.65,0.16,1.17,0.49,1.54
			c0.33,0.37,0.73,0.69,1.22,0.95c0.49,0.26,1.01,0.49,1.57,0.69c0.56,0.2,1.09,0.45,1.57,0.74c0.49,0.29,0.89,0.66,1.22,1.12
			c0.33,0.46,0.49,1.07,0.49,1.83c0,0.64-0.12,1.24-0.34,1.81c-0.23,0.57-0.56,1.06-1,1.49c-0.44,0.42-0.97,0.75-1.6,0.98
			c-0.63,0.23-1.35,0.34-2.15,0.34c-0.86,0-1.56-0.11-2.09-0.34c-0.54-0.23-0.98-0.49-1.34-0.78c0.12-0.32,0.21-0.61,0.26-0.86
			c0.05-0.26,0.09-0.59,0.14-0.99h0.25C649.45,100.39,649.6,100.64,649.79,100.9z"/>
		<path class="st0" d="M660.26,91.21c-0.04-0.89-0.07-1.78-0.12-2.66c0.36,0.03,0.73,0.05,1.1,0.07c0.38,0.02,0.74,0.03,1.1,0.03
			c0.36,0,0.73-0.02,1.1-0.05c0.37-0.04,0.74-0.05,1.1-0.05c0.6,0,1.16,0.04,1.69,0.13c0.53,0.09,0.99,0.25,1.4,0.48
			c0.4,0.23,0.72,0.54,0.96,0.93c0.23,0.39,0.35,0.87,0.35,1.46c0,1.03-0.32,1.83-0.97,2.42c-0.64,0.58-1.49,0.99-2.53,1.23v0.04
			c1.23,0.06,2.21,0.36,2.92,0.89c0.71,0.54,1.07,1.41,1.07,2.6c0,0.78-0.16,1.43-0.48,1.96c-0.32,0.53-0.73,0.95-1.25,1.28
			c-0.51,0.33-1.08,0.55-1.7,0.69c-0.62,0.13-1.23,0.2-1.84,0.2c-0.33,0-0.67-0.01-1.01-0.02c-0.34-0.01-0.68-0.02-1.01-0.02
			c-0.33,0-0.67,0-1.01,0c-0.34,0-0.68,0.01-1.01,0.04c0.04-0.89,0.08-1.77,0.12-2.65c0.03-0.88,0.05-1.78,0.05-2.7v-3.58
			C660.31,93,660.29,92.1,660.26,91.21z M664.59,94.79c0.48-0.1,0.91-0.26,1.28-0.49c0.37-0.23,0.68-0.54,0.9-0.92
			c0.23-0.38,0.34-0.86,0.34-1.45c0-0.57-0.1-1.02-0.31-1.36c-0.21-0.34-0.47-0.6-0.79-0.79c-0.32-0.19-0.68-0.31-1.08-0.38
			c-0.4-0.06-0.8-0.09-1.21-0.09c-0.36,0-0.67,0.01-0.92,0.03c-0.25,0.02-0.47,0.05-0.67,0.07c-0.03,0.66-0.05,1.32-0.08,1.98
			c-0.03,0.65-0.04,1.31-0.04,1.98v1.56h1.12C663.62,94.94,664.11,94.89,664.59,94.79z M662.06,99.93c0.03,0.69,0.06,1.39,0.08,2.1
			c0.26,0.03,0.58,0.05,0.94,0.07c0.36,0.02,0.73,0.03,1.1,0.03c0.44,0,0.87-0.08,1.28-0.23c0.41-0.15,0.77-0.38,1.07-0.68
			c0.3-0.3,0.55-0.67,0.73-1.1c0.18-0.44,0.27-0.93,0.27-1.49c0-0.6-0.11-1.08-0.32-1.47c-0.21-0.38-0.52-0.68-0.93-0.89
			c-0.4-0.22-0.88-0.37-1.45-0.45c-0.56-0.08-1.19-0.12-1.88-0.12h-0.94v2.12C662.01,98.54,662.03,99.24,662.06,99.93z"/>
		<path class="st0" d="M673.08,91.24c-0.04-0.88-0.07-1.78-0.11-2.7c0.18,0.03,0.35,0.05,0.52,0.07c0.17,0.02,0.33,0.03,0.5,0.03
			s0.33-0.01,0.5-0.03c0.17-0.02,0.34-0.04,0.52-0.07c-0.04,0.92-0.08,1.81-0.12,2.7c-0.03,0.88-0.05,1.78-0.05,2.69v3.58
			c0,0.92,0.02,1.82,0.05,2.71c0.04,0.89,0.07,1.76,0.12,2.62c-0.32-0.03-0.66-0.04-1.02-0.04s-0.7,0.01-1.02,0.04
			c0.04-0.86,0.08-1.73,0.11-2.62c0.04-0.89,0.05-1.79,0.05-2.71v-3.58C673.13,93.02,673.11,92.13,673.08,91.24z"/>
		<path class="st0" d="M678.97,91.21c-0.04-0.89-0.07-1.78-0.12-2.66c0.36,0.03,0.73,0.05,1.1,0.07c0.38,0.02,0.74,0.03,1.1,0.03
			c0.36,0,0.73-0.02,1.1-0.05c0.38-0.04,0.74-0.05,1.11-0.05c0.6,0,1.16,0.04,1.69,0.13c0.53,0.09,0.99,0.25,1.39,0.48
			c0.4,0.23,0.72,0.54,0.96,0.93c0.24,0.39,0.35,0.87,0.35,1.46c0,1.03-0.32,1.83-0.97,2.42c-0.65,0.58-1.49,0.99-2.53,1.23v0.04
			c1.23,0.06,2.21,0.36,2.92,0.89c0.71,0.54,1.07,1.41,1.07,2.6c0,0.78-0.16,1.43-0.48,1.96c-0.32,0.53-0.74,0.95-1.25,1.28
			c-0.51,0.33-1.08,0.55-1.7,0.69c-0.62,0.13-1.23,0.2-1.84,0.2c-0.33,0-0.67-0.01-1.01-0.02c-0.34-0.01-0.68-0.02-1.01-0.02
			c-0.33,0-0.67,0-1.01,0s-0.68,0.01-1.01,0.04c0.04-0.89,0.08-1.77,0.12-2.65c0.03-0.88,0.05-1.78,0.05-2.7v-3.58
			C679.02,93,679,92.1,678.97,91.21z M683.3,94.79c0.48-0.1,0.91-0.26,1.28-0.49c0.38-0.23,0.68-0.54,0.9-0.92
			c0.23-0.38,0.34-0.86,0.34-1.45c0-0.57-0.1-1.02-0.31-1.36c-0.21-0.34-0.47-0.6-0.79-0.79c-0.32-0.19-0.68-0.31-1.08-0.38
			c-0.4-0.06-0.8-0.09-1.21-0.09c-0.36,0-0.67,0.01-0.92,0.03c-0.25,0.02-0.47,0.05-0.67,0.07c-0.03,0.66-0.05,1.32-0.08,1.98
			c-0.03,0.65-0.04,1.31-0.04,1.98v1.56h1.12C682.34,94.94,682.82,94.89,683.3,94.79z M680.77,99.93c0.03,0.69,0.06,1.39,0.08,2.1
			c0.26,0.03,0.58,0.05,0.94,0.07c0.36,0.02,0.73,0.03,1.1,0.03c0.44,0,0.87-0.08,1.28-0.23c0.41-0.15,0.77-0.38,1.07-0.68
			c0.3-0.3,0.55-0.67,0.73-1.1c0.18-0.44,0.27-0.93,0.27-1.49c0-0.6-0.11-1.08-0.32-1.47c-0.21-0.38-0.52-0.68-0.93-0.89
			c-0.4-0.22-0.88-0.37-1.45-0.45c-0.56-0.08-1.19-0.12-1.88-0.12h-0.94v2.12C680.72,98.54,680.74,99.24,680.77,99.93z"/>
		<path class="st0" d="M691.79,91.24c-0.04-0.88-0.07-1.78-0.11-2.7c0.18,0.03,0.35,0.05,0.52,0.07c0.17,0.02,0.33,0.03,0.5,0.03
			c0.17,0,0.33-0.01,0.5-0.03c0.17-0.02,0.34-0.04,0.52-0.07c-0.04,0.92-0.08,1.81-0.12,2.7c-0.03,0.88-0.05,1.78-0.05,2.69
			c0,1.75,0.01,3.26,0.02,4.55c0.01,1.29,0.03,2.43,0.04,3.45c0.99,0,1.93-0.01,2.83-0.03c0.9-0.02,1.87-0.1,2.91-0.24
			c-0.07,0.25-0.11,0.46-0.11,0.62c0,0.15,0.04,0.34,0.11,0.56c-0.64-0.03-1.28-0.04-1.92-0.04c-0.64,0-1.28,0-1.91,0
			c-0.67,0-1.31,0-1.93,0c-0.62,0-1.26,0.01-1.92,0.04c0.04-0.86,0.08-1.73,0.11-2.62c0.04-0.89,0.05-1.79,0.05-2.71v-3.58
			C691.84,93.02,691.82,92.13,691.79,91.24z"/>
		<path class="st0" d="M702.3,91.24c-0.04-0.88-0.07-1.78-0.12-2.7c0.18,0.03,0.35,0.05,0.52,0.07c0.17,0.02,0.33,0.03,0.5,0.03
			c0.17,0,0.33-0.01,0.5-0.03c0.17-0.02,0.34-0.04,0.52-0.07c-0.04,0.92-0.08,1.81-0.11,2.7c-0.04,0.88-0.05,1.78-0.05,2.69v3.58
			c0,0.92,0.02,1.82,0.05,2.71c0.03,0.89,0.07,1.76,0.11,2.62c-0.32-0.03-0.66-0.04-1.02-0.04c-0.36,0-0.7,0.01-1.02,0.04
			c0.04-0.86,0.08-1.73,0.12-2.62c0.03-0.89,0.05-1.79,0.05-2.71v-3.58C702.35,93.02,702.33,92.13,702.3,91.24z"/>
		<path class="st0" d="M707.65,92.58c0.38-0.92,0.92-1.7,1.6-2.34c0.69-0.64,1.51-1.12,2.47-1.46c0.96-0.33,2-0.5,3.14-0.5
			c1.15,0,2.21,0.17,3.16,0.5c0.96,0.33,1.78,0.82,2.47,1.46c0.69,0.64,1.22,1.42,1.6,2.34c0.38,0.92,0.57,1.97,0.57,3.15
			c0,1.18-0.19,2.23-0.57,3.15c-0.38,0.92-0.92,1.7-1.6,2.34c-0.69,0.64-1.51,1.11-2.47,1.43c-0.96,0.31-2.01,0.47-3.16,0.47
			c-1.14,0-2.19-0.16-3.14-0.47c-0.96-0.31-1.78-0.79-2.47-1.43c-0.69-0.64-1.22-1.42-1.6-2.34c-0.38-0.92-0.57-1.97-0.57-3.15
			C707.07,94.55,707.27,93.5,707.65,92.58z M720.19,92.74c-0.29-0.84-0.7-1.53-1.22-2.08c-0.52-0.55-1.13-0.95-1.83-1.22
			c-0.7-0.26-1.46-0.39-2.28-0.39c-0.8,0-1.56,0.13-2.26,0.39c-0.7,0.26-1.31,0.67-1.83,1.22c-0.52,0.55-0.93,1.24-1.22,2.08
			c-0.29,0.84-0.44,1.83-0.44,2.99c0,1.15,0.14,2.15,0.44,2.99c0.29,0.84,0.7,1.53,1.22,2.08c0.52,0.55,1.13,0.96,1.83,1.22
			c0.7,0.26,1.45,0.39,2.26,0.39c0.82,0,1.58-0.13,2.28-0.39c0.7-0.26,1.31-0.67,1.83-1.22c0.52-0.55,0.93-1.24,1.22-2.08
			c0.29-0.84,0.44-1.84,0.44-2.99C720.63,94.58,720.48,93.58,720.19,92.74z"/>
		<path class="st0" d="M727.74,89.63c-0.36,0-0.74,0-1.13,0.01c-0.39,0.01-0.79,0.02-1.19,0.04c-0.4,0.02-0.78,0.05-1.14,0.07
			c-0.37,0.03-0.7,0.06-0.99,0.1c0.07-0.25,0.1-0.47,0.1-0.67c0-0.15-0.04-0.37-0.1-0.65c0.92,0.03,1.81,0.05,2.68,0.07
			c0.87,0.02,1.77,0.03,2.68,0.03c0.92,0,1.81-0.01,2.69-0.03c0.87-0.02,1.77-0.04,2.68-0.07c-0.07,0.28-0.1,0.5-0.1,0.67
			c0,0.18,0.04,0.39,0.1,0.64c-0.29-0.04-0.62-0.08-0.99-0.1c-0.37-0.03-0.75-0.05-1.14-0.07c-0.4-0.02-0.79-0.03-1.19-0.04
			c-0.4-0.01-0.77-0.01-1.13-0.01c-0.04,1.43-0.06,2.87-0.06,4.31v3.58c0,0.92,0.02,1.82,0.05,2.71c0.03,0.89,0.07,1.76,0.11,2.62
			c-0.32-0.03-0.66-0.04-1.02-0.04c-0.36,0-0.7,0.01-1.02,0.04c0.04-0.86,0.08-1.73,0.11-2.62c0.03-0.89,0.05-1.79,0.05-2.71v-3.58
			C727.81,92.5,727.78,91.06,727.74,89.63z"/>
		<path class="st0" d="M746.94,91.24c-0.04-0.88-0.07-1.78-0.12-2.7c0.18,0.03,0.35,0.05,0.52,0.07c0.17,0.02,0.33,0.03,0.5,0.03
			c0.17,0,0.33-0.01,0.5-0.03c0.17-0.02,0.34-0.04,0.52-0.07c-0.04,0.92-0.08,1.81-0.11,2.7c-0.04,0.88-0.05,1.78-0.05,2.69v3.58
			c0,0.92,0.02,1.82,0.05,2.71c0.03,0.89,0.07,1.76,0.11,2.62c-0.32-0.03-0.66-0.04-1.02-0.04c-0.36,0-0.7,0.01-1.02,0.04
			c0.04-0.86,0.08-1.73,0.12-2.62c0.03-0.89,0.05-1.79,0.05-2.71v-1.87c-0.75-0.01-1.47-0.02-2.17-0.03
			c-0.7-0.01-1.43-0.01-2.18-0.01c-0.75,0-1.47,0-2.17,0.01c-0.7,0.01-1.42,0.02-2.17,0.03v1.87c0,0.92,0.02,1.82,0.05,2.71
			c0.03,0.89,0.07,1.76,0.12,2.62c-0.32-0.03-0.66-0.04-1.02-0.04c-0.36,0-0.7,0.01-1.02,0.04c0.04-0.86,0.08-1.73,0.12-2.62
			c0.03-0.89,0.05-1.79,0.05-2.71v-3.58c0-0.92-0.02-1.81-0.05-2.69c-0.04-0.88-0.07-1.78-0.12-2.7c0.18,0.03,0.35,0.05,0.52,0.07
			c0.17,0.02,0.33,0.03,0.5,0.03c0.17,0,0.33-0.01,0.5-0.03c0.17-0.02,0.34-0.04,0.52-0.07c-0.04,0.92-0.08,1.81-0.12,2.7
			c-0.03,0.88-0.05,1.78-0.05,2.69v0.73c0.75,0.01,1.47,0.03,2.17,0.04c0.7,0.01,1.43,0.02,2.17,0.02c0.75,0,1.47-0.01,2.18-0.02
			c0.7-0.01,1.43-0.03,2.17-0.04v-0.73C746.99,93.02,746.98,92.13,746.94,91.24z"/>
		<path class="st0" d="M752.83,91.21c-0.04-0.89-0.07-1.78-0.11-2.66c0.62,0.03,1.24,0.05,1.86,0.07c0.62,0.02,1.24,0.03,1.86,0.03
			s1.24-0.01,1.85-0.03c0.61-0.02,1.23-0.04,1.85-0.07c-0.04,0.21-0.06,0.42-0.06,0.62c0,0.21,0.02,0.42,0.06,0.62
			c-0.44-0.03-0.85-0.06-1.22-0.08c-0.37-0.03-0.75-0.06-1.16-0.08c-0.41-0.03-0.86-0.05-1.34-0.07c-0.49-0.02-1.07-0.03-1.75-0.03
			c-0.01,0.44-0.03,0.87-0.05,1.27c-0.02,0.4-0.03,0.86-0.03,1.37c0,0.54,0,1.07,0.01,1.58c0.01,0.51,0.01,0.9,0.01,1.17
			c0.61,0,1.16-0.01,1.64-0.02c0.49-0.01,0.93-0.03,1.33-0.05c0.4-0.02,0.77-0.04,1.12-0.06c0.34-0.02,0.66-0.04,0.97-0.07
			c-0.04,0.21-0.06,0.42-0.06,0.64c0,0.21,0.02,0.42,0.06,0.62c-0.36-0.04-0.78-0.08-1.26-0.11c-0.48-0.03-0.96-0.04-1.44-0.05
			c-0.48-0.01-0.93-0.01-1.35-0.02c-0.42-0.01-0.76-0.01-1.01-0.01c0,0.12,0,0.26-0.01,0.41c-0.01,0.14-0.01,0.33-0.01,0.55v0.81
			v1.25c0,0.79,0,1.44,0.01,1.96c0.01,0.51,0.02,0.9,0.03,1.17c0.46,0,0.94,0,1.46,0c0.53,0,1.04-0.01,1.55-0.03
			c0.51-0.02,0.98-0.05,1.44-0.08c0.45-0.04,0.84-0.09,1.18-0.16c-0.03,0.1-0.04,0.21-0.05,0.32c-0.01,0.12-0.01,0.22-0.01,0.32
			c0,0.22,0.02,0.4,0.06,0.54c-0.62-0.03-1.24-0.04-1.86-0.04c-0.62,0-1.25,0-1.88,0c-0.64,0-1.27,0-1.89,0
			c-0.62,0-1.26,0.01-1.89,0.04c0.04-0.89,0.08-1.77,0.11-2.65c0.04-0.88,0.05-1.78,0.05-2.7v-3.58
			C752.89,93,752.87,92.1,752.83,91.21z"/>
		<path class="st0" d="M763.34,100.22c0.04-0.89,0.05-1.79,0.05-2.71v-3.58c0-0.92-0.02-1.81-0.05-2.69
			c-0.04-0.88-0.07-1.78-0.12-2.7c0.18,0.03,0.36,0.05,0.52,0.07c0.17,0.02,0.33,0.03,0.5,0.03c0.17,0,0.33-0.01,0.5-0.03
			c0.16-0.02,0.34-0.04,0.52-0.07c-0.04,0.92-0.08,1.81-0.12,2.7c-0.04,0.88-0.05,1.78-0.05,2.69v1.15c0,0.11,0.04,0.17,0.12,0.17
			c0.06,0,0.15-0.06,0.29-0.19c0.48-0.42,0.99-0.89,1.53-1.42c0.53-0.53,1.07-1.08,1.61-1.64c0.54-0.57,1.07-1.15,1.6-1.74
			c0.53-0.59,1.03-1.16,1.52-1.72c0.15,0.03,0.3,0.05,0.44,0.07c0.14,0.02,0.28,0.03,0.42,0.03c0.17,0,0.33-0.01,0.5-0.03
			c0.17-0.02,0.33-0.04,0.5-0.07c-0.48,0.42-1.03,0.91-1.64,1.48c-0.61,0.57-1.22,1.15-1.84,1.75c-0.62,0.6-1.21,1.18-1.77,1.76
			c-0.56,0.58-1.03,1.08-1.4,1.51c1.12,1.26,2.26,2.55,3.4,3.86c1.14,1.31,2.31,2.63,3.49,3.95c-0.21-0.03-0.42-0.04-0.62-0.04
			s-0.42,0-0.62,0c-0.19,0-0.38,0-0.57,0c-0.19,0-0.38,0.01-0.57,0.04c-0.5-0.57-1.05-1.22-1.65-1.96c-0.6-0.74-1.19-1.45-1.77-2.13
			c-0.58-0.69-1.1-1.3-1.56-1.85c-0.46-0.55-0.81-0.93-1.03-1.16c-0.11-0.11-0.2-0.17-0.25-0.17c-0.07,0-0.11,0.04-0.11,0.12v1.81
			c0,0.92,0.02,1.82,0.05,2.71c0.04,0.89,0.07,1.76,0.12,2.62c-0.32-0.03-0.66-0.04-1.02-0.04c-0.36,0-0.7,0.01-1.02,0.04
			C763.27,101.99,763.31,101.11,763.34,100.22z"/>
		<path class="st0" d="M793.25,90.34c-0.31-0.25-0.66-0.47-1.04-0.66c-0.38-0.19-0.8-0.34-1.27-0.46c-0.46-0.12-0.96-0.18-1.49-0.18
			c-0.86,0-1.66,0.13-2.4,0.39c-0.74,0.26-1.39,0.67-1.94,1.22c-0.55,0.55-0.98,1.24-1.29,2.08c-0.31,0.84-0.47,1.83-0.47,2.99
			c0,1.01,0.14,1.93,0.42,2.75c0.28,0.82,0.68,1.51,1.22,2.07c0.53,0.56,1.19,1,1.96,1.3c0.77,0.31,1.64,0.46,2.61,0.46
			c0.29,0,0.6-0.01,0.92-0.04c0.32-0.03,0.63-0.07,0.93-0.12c0.3-0.06,0.58-0.12,0.83-0.21c0.26-0.08,0.47-0.18,0.66-0.29
			c0.01-0.42,0.02-0.83,0.03-1.25c0.01-0.42,0.01-0.84,0.01-1.27c0-0.49-0.01-0.97-0.03-1.46c-0.02-0.49-0.04-0.95-0.07-1.39
			c0.35,0.07,0.68,0.1,1,0.1c0.15,0,0.3-0.01,0.46-0.02c0.15-0.01,0.3-0.04,0.44-0.08c-0.03,0.32-0.05,0.82-0.06,1.51
			c-0.02,0.69-0.02,1.59-0.02,2.72c0,0.28,0,0.56,0.01,0.84c0.01,0.29,0.01,0.57,0.01,0.84c-0.29,0.11-0.66,0.22-1.09,0.34
			c-0.44,0.12-0.9,0.21-1.39,0.29c-0.49,0.08-0.98,0.15-1.48,0.21c-0.49,0.06-0.94,0.09-1.34,0.09c-1.24,0-2.35-0.15-3.34-0.45
			c-0.99-0.3-1.84-0.76-2.53-1.38c-0.7-0.62-1.23-1.4-1.6-2.33c-0.37-0.93-0.56-2-0.56-3.23c0-1.18,0.19-2.23,0.58-3.15
			c0.39-0.92,0.94-1.7,1.64-2.34c0.71-0.64,1.56-1.12,2.57-1.46c1.01-0.33,2.12-0.5,3.34-0.5c0.71,0,1.34,0.04,1.88,0.12
			c0.55,0.08,1.03,0.18,1.46,0.3c0.42,0.12,0.79,0.26,1.11,0.4c0.32,0.14,0.6,0.27,0.85,0.39c-0.11,0.19-0.21,0.44-0.3,0.75
			c-0.09,0.31-0.15,0.59-0.18,0.85h-0.25C793.82,90.84,793.56,90.59,793.25,90.34z"/>
		<path class="st0" d="M797.81,92.58c0.38-0.92,0.92-1.7,1.6-2.34c0.69-0.64,1.51-1.12,2.46-1.46c0.96-0.33,2.01-0.5,3.14-0.5
			c1.15,0,2.21,0.17,3.16,0.5c0.96,0.33,1.78,0.82,2.47,1.46c0.69,0.64,1.22,1.42,1.6,2.34c0.38,0.92,0.57,1.97,0.57,3.15
			c0,1.18-0.19,2.23-0.57,3.15c-0.38,0.92-0.92,1.7-1.6,2.34c-0.69,0.64-1.51,1.11-2.47,1.43c-0.96,0.31-2.01,0.47-3.16,0.47
			c-1.14,0-2.18-0.16-3.14-0.47c-0.96-0.31-1.78-0.79-2.46-1.43c-0.69-0.64-1.22-1.42-1.6-2.34c-0.38-0.92-0.57-1.97-0.57-3.15
			C797.24,94.55,797.43,93.5,797.81,92.58z M810.35,92.74c-0.29-0.84-0.7-1.53-1.22-2.08c-0.52-0.55-1.13-0.95-1.83-1.22
			c-0.7-0.26-1.46-0.39-2.28-0.39c-0.8,0-1.56,0.13-2.26,0.39c-0.7,0.26-1.31,0.67-1.83,1.22c-0.52,0.55-0.93,1.24-1.22,2.08
			c-0.29,0.84-0.44,1.83-0.44,2.99c0,1.15,0.15,2.15,0.44,2.99c0.29,0.84,0.7,1.53,1.22,2.08c0.52,0.55,1.13,0.96,1.83,1.22
			c0.7,0.26,1.45,0.39,2.26,0.39c0.82,0,1.58-0.13,2.28-0.39c0.7-0.26,1.31-0.67,1.83-1.22c0.52-0.55,0.93-1.24,1.22-2.08
			c0.29-0.84,0.44-1.84,0.44-2.99C810.79,94.58,810.64,93.58,810.35,92.74z M802.23,85.22c0.21-0.21,0.46-0.31,0.75-0.31
			s0.54,0.1,0.75,0.31c0.21,0.21,0.31,0.46,0.31,0.75c0,0.29-0.11,0.54-0.31,0.75c-0.21,0.21-0.46,0.31-0.75,0.31
			s-0.54-0.1-0.75-0.31c-0.21-0.21-0.31-0.46-0.31-0.75C801.92,85.68,802.03,85.43,802.23,85.22z M806.33,85.22
			c0.21-0.21,0.46-0.31,0.75-0.31c0.29,0,0.54,0.1,0.75,0.31c0.21,0.21,0.31,0.46,0.31,0.75c0,0.29-0.1,0.54-0.31,0.75
			c-0.21,0.21-0.46,0.31-0.75,0.31c-0.29,0-0.54-0.1-0.75-0.31c-0.21-0.21-0.31-0.46-0.31-0.75
			C806.02,85.68,806.13,85.43,806.33,85.22z"/>
		<path class="st0" d="M818.68,89.63c-0.36,0-0.74,0-1.13,0.01c-0.39,0.01-0.79,0.02-1.19,0.04c-0.4,0.02-0.78,0.05-1.15,0.07
			c-0.37,0.03-0.7,0.06-0.99,0.1c0.07-0.25,0.11-0.47,0.11-0.67c0-0.15-0.04-0.37-0.11-0.65c0.92,0.03,1.81,0.05,2.69,0.07
			c0.87,0.02,1.77,0.03,2.68,0.03c0.92,0,1.81-0.01,2.69-0.03c0.88-0.02,1.77-0.04,2.69-0.07c-0.07,0.28-0.1,0.5-0.1,0.67
			c0,0.18,0.03,0.39,0.1,0.64c-0.29-0.04-0.62-0.08-0.99-0.1c-0.37-0.03-0.75-0.05-1.14-0.07c-0.39-0.02-0.79-0.03-1.19-0.04
			c-0.4-0.01-0.78-0.01-1.14-0.01c-0.04,1.43-0.06,2.87-0.06,4.31v3.58c0,0.92,0.02,1.82,0.05,2.71c0.04,0.89,0.07,1.76,0.12,2.62
			c-0.32-0.03-0.66-0.04-1.02-0.04c-0.36,0-0.7,0.01-1.02,0.04c0.04-0.86,0.08-1.73,0.11-2.62c0.04-0.89,0.05-1.79,0.05-2.71v-3.58
			C818.74,92.5,818.72,91.06,818.68,89.63z"/>
		<path class="st0" d="M830.35,89.63c-0.36,0-0.74,0-1.13,0.01c-0.4,0.01-0.79,0.02-1.19,0.04c-0.39,0.02-0.78,0.05-1.14,0.07
			c-0.37,0.03-0.7,0.06-0.99,0.1c0.07-0.25,0.1-0.47,0.1-0.67c0-0.15-0.04-0.37-0.1-0.65c0.92,0.03,1.81,0.05,2.68,0.07
			c0.88,0.02,1.77,0.03,2.69,0.03c0.92,0,1.81-0.01,2.69-0.03c0.87-0.02,1.77-0.04,2.68-0.07c-0.07,0.28-0.1,0.5-0.1,0.67
			c0,0.18,0.03,0.39,0.1,0.64c-0.29-0.04-0.62-0.08-0.99-0.1c-0.37-0.03-0.75-0.05-1.14-0.07c-0.39-0.02-0.79-0.03-1.19-0.04
			c-0.4-0.01-0.77-0.01-1.13-0.01c-0.04,1.43-0.06,2.87-0.06,4.31v3.58c0,0.92,0.02,1.82,0.05,2.71c0.04,0.89,0.07,1.76,0.12,2.62
			c-0.32-0.03-0.66-0.04-1.02-0.04c-0.36,0-0.7,0.01-1.02,0.04c0.04-0.86,0.08-1.73,0.12-2.62c0.03-0.89,0.05-1.79,0.05-2.71v-3.58
			C830.41,92.5,830.39,91.06,830.35,89.63z"/>
		<path class="st0" d="M839.14,91.24c-0.03-0.88-0.07-1.78-0.11-2.7c0.18,0.03,0.35,0.05,0.52,0.07c0.17,0.02,0.33,0.03,0.5,0.03
			c0.17,0,0.33-0.01,0.5-0.03c0.17-0.02,0.34-0.04,0.52-0.07c-0.04,0.92-0.08,1.81-0.12,2.7c-0.03,0.88-0.05,1.78-0.05,2.69v3.58
			c0,0.92,0.02,1.82,0.05,2.71c0.04,0.89,0.07,1.76,0.12,2.62c-0.32-0.03-0.66-0.04-1.02-0.04c-0.36,0-0.7,0.01-1.02,0.04
			c0.04-0.86,0.08-1.73,0.11-2.62c0.04-0.89,0.05-1.79,0.05-2.71v-3.58C839.2,93.02,839.18,92.13,839.14,91.24z"/>
		<path class="st0" d="M851.71,97.45c-1.8-1.94-3.61-3.86-5.41-5.77c-0.01,0.39-0.03,0.91-0.04,1.56c-0.02,0.65-0.02,1.54-0.02,2.67
			c0,0.29,0,0.65,0.01,1.08c0.01,0.43,0.01,0.88,0.02,1.35c0.01,0.47,0.02,0.95,0.03,1.44c0.01,0.49,0.03,0.94,0.04,1.35
			c0.01,0.41,0.03,0.78,0.04,1.09c0.02,0.31,0.03,0.52,0.04,0.63c-0.22-0.03-0.46-0.04-0.73-0.04c-0.28,0-0.54,0.01-0.77,0.04
			c0.03-0.14,0.06-0.4,0.09-0.77c0.04-0.37,0.07-0.82,0.1-1.34c0.03-0.52,0.06-1.08,0.09-1.7c0.03-0.61,0.06-1.22,0.08-1.83
			c0.02-0.61,0.04-1.21,0.05-1.79c0.02-0.58,0.02-1.1,0.02-1.56c0-1.33,0-2.48-0.01-3.43c-0.01-0.96-0.03-1.67-0.05-2.14h0.33
			c0.85,0.92,1.75,1.9,2.72,2.95c0.96,1.05,1.92,2.08,2.87,3.1c0.95,1.02,1.85,1.98,2.71,2.89c0.85,0.91,1.6,1.68,2.24,2.32v-2.83
			c0-1.46-0.01-2.87-0.03-4.26c-0.02-1.38-0.07-2.68-0.13-3.9c0.28,0.07,0.51,0.1,0.71,0.1c0.17,0,0.39-0.03,0.67-0.1
			c-0.03,0.31-0.06,0.76-0.09,1.37c-0.04,0.61-0.07,1.26-0.1,1.96c-0.04,0.69-0.07,1.37-0.09,2.04c-0.03,0.67-0.04,1.2-0.04,1.6
			c0,0.35,0,0.76,0,1.25c0,0.47,0,0.96,0.01,1.48c0.01,0.51,0.01,1.03,0.02,1.55c0.01,0.52,0.01,1.01,0.02,1.46
			c0.01,0.45,0.01,0.84,0.01,1.18c0,0.3,0,0.53,0,0.69h-0.29C855.21,101.27,853.51,99.38,851.71,97.45z"/>
		<path class="st0" d="M872.53,90.34c-0.31-0.25-0.66-0.47-1.04-0.66c-0.38-0.19-0.8-0.34-1.27-0.46c-0.46-0.12-0.96-0.18-1.49-0.18
			c-0.86,0-1.66,0.13-2.4,0.39c-0.74,0.26-1.39,0.67-1.93,1.22c-0.55,0.55-0.98,1.24-1.29,2.08c-0.31,0.84-0.47,1.83-0.47,2.99
			c0,1.01,0.14,1.93,0.42,2.75c0.28,0.82,0.68,1.51,1.22,2.07c0.53,0.56,1.19,1,1.96,1.3c0.77,0.31,1.64,0.46,2.61,0.46
			c0.29,0,0.6-0.01,0.91-0.04c0.32-0.03,0.63-0.07,0.93-0.12c0.3-0.06,0.57-0.12,0.83-0.21c0.26-0.08,0.47-0.18,0.66-0.29
			c0.01-0.42,0.02-0.83,0.03-1.25c0.01-0.42,0.01-0.84,0.01-1.27c0-0.49-0.01-0.97-0.03-1.46c-0.02-0.49-0.05-0.95-0.07-1.39
			c0.35,0.07,0.68,0.1,1,0.1c0.15,0,0.3-0.01,0.46-0.02c0.15-0.01,0.3-0.04,0.44-0.08c-0.03,0.32-0.05,0.82-0.06,1.51
			c-0.01,0.69-0.02,1.59-0.02,2.72c0,0.28,0,0.56,0.01,0.84c0.01,0.29,0.01,0.57,0.01,0.84c-0.29,0.11-0.65,0.22-1.09,0.34
			c-0.44,0.12-0.9,0.21-1.39,0.29c-0.49,0.08-0.99,0.15-1.48,0.21c-0.49,0.06-0.94,0.09-1.34,0.09c-1.24,0-2.35-0.15-3.34-0.45
			c-0.99-0.3-1.84-0.76-2.53-1.38c-0.69-0.62-1.23-1.4-1.6-2.33c-0.38-0.93-0.56-2-0.56-3.23c0-1.18,0.19-2.23,0.58-3.15
			c0.39-0.92,0.94-1.7,1.64-2.34c0.71-0.64,1.56-1.12,2.57-1.46s2.12-0.5,3.34-0.5c0.71,0,1.34,0.04,1.88,0.12
			c0.55,0.08,1.03,0.18,1.46,0.3c0.42,0.12,0.79,0.26,1.11,0.4c0.32,0.14,0.6,0.27,0.85,0.39c-0.11,0.19-0.21,0.44-0.3,0.75
			c-0.09,0.31-0.15,0.59-0.18,0.85h-0.25C873.1,90.84,872.84,90.59,872.53,90.34z"/>
		<path class="st0" d="M877.63,91.21c-0.04-0.89-0.07-1.78-0.12-2.66c0.62,0.03,1.25,0.05,1.86,0.07c0.62,0.02,1.24,0.03,1.86,0.03
			s1.24-0.01,1.85-0.03c0.61-0.02,1.23-0.04,1.85-0.07c-0.04,0.21-0.06,0.42-0.06,0.62c0,0.21,0.02,0.42,0.06,0.62
			c-0.44-0.03-0.85-0.06-1.22-0.08c-0.37-0.03-0.76-0.06-1.17-0.08c-0.41-0.03-0.86-0.05-1.34-0.07c-0.48-0.02-1.07-0.03-1.75-0.03
			c-0.01,0.44-0.03,0.87-0.05,1.27c-0.02,0.4-0.03,0.86-0.03,1.37c0,0.54,0,1.07,0.01,1.58c0.01,0.51,0.01,0.9,0.01,1.17
			c0.61,0,1.16-0.01,1.64-0.02c0.49-0.01,0.93-0.03,1.33-0.05c0.4-0.02,0.77-0.04,1.11-0.06c0.34-0.02,0.66-0.04,0.97-0.07
			c-0.04,0.21-0.06,0.42-0.06,0.64c0,0.21,0.02,0.42,0.06,0.62c-0.36-0.04-0.78-0.08-1.26-0.11c-0.48-0.03-0.96-0.04-1.44-0.05
			c-0.48-0.01-0.93-0.01-1.35-0.02c-0.42-0.01-0.76-0.01-1.01-0.01c0,0.12-0.01,0.26-0.01,0.41c-0.01,0.14-0.01,0.33-0.01,0.55v0.81
			v1.25c0,0.79,0,1.44,0.01,1.96c0.01,0.51,0.02,0.9,0.03,1.17c0.46,0,0.94,0,1.46,0c0.53,0,1.04-0.01,1.55-0.03
			c0.51-0.02,0.99-0.05,1.44-0.08c0.45-0.04,0.84-0.09,1.18-0.16c-0.03,0.1-0.04,0.21-0.05,0.32c-0.01,0.12-0.01,0.22-0.01,0.32
			c0,0.22,0.02,0.4,0.06,0.54c-0.62-0.03-1.25-0.04-1.86-0.04c-0.62,0-1.25,0-1.88,0c-0.64,0-1.27,0-1.89,0
			c-0.62,0-1.26,0.01-1.9,0.04c0.04-0.89,0.08-1.77,0.12-2.65c0.04-0.88,0.05-1.78,0.05-2.7v-3.58
			C877.68,93,877.66,92.1,877.63,91.21z"/>
		<path class="st0" d="M894.81,97.45c-1.8-1.94-3.61-3.86-5.41-5.77c-0.01,0.39-0.03,0.91-0.04,1.56c-0.01,0.65-0.02,1.54-0.02,2.67
			c0,0.29,0,0.65,0.01,1.08c0.01,0.43,0.01,0.88,0.02,1.35c0.01,0.47,0.02,0.95,0.03,1.44c0.02,0.49,0.03,0.94,0.04,1.35
			c0.01,0.41,0.03,0.78,0.04,1.09c0.01,0.31,0.03,0.52,0.04,0.63c-0.22-0.03-0.46-0.04-0.73-0.04c-0.28,0-0.54,0.01-0.77,0.04
			c0.03-0.14,0.06-0.4,0.09-0.77c0.04-0.37,0.07-0.82,0.09-1.34s0.06-1.08,0.09-1.7c0.04-0.61,0.06-1.22,0.08-1.83
			c0.02-0.61,0.04-1.21,0.05-1.79c0.01-0.58,0.02-1.1,0.02-1.56c0-1.33,0-2.48-0.01-3.43c-0.01-0.96-0.03-1.67-0.05-2.14h0.33
			c0.85,0.92,1.75,1.9,2.72,2.95c0.96,1.05,1.92,2.08,2.87,3.1c0.95,1.02,1.85,1.98,2.71,2.89c0.85,0.91,1.6,1.68,2.24,2.32v-2.83
			c0-1.46-0.01-2.87-0.03-4.26c-0.02-1.38-0.07-2.68-0.14-3.9c0.28,0.07,0.51,0.1,0.71,0.1c0.17,0,0.39-0.03,0.67-0.1
			c-0.03,0.31-0.06,0.76-0.09,1.37c-0.04,0.61-0.07,1.26-0.1,1.96c-0.04,0.69-0.07,1.37-0.09,2.04c-0.03,0.67-0.04,1.2-0.04,1.6
			c0,0.35,0,0.76,0,1.25c0,0.47,0,0.96,0.01,1.48c0.01,0.51,0.01,1.03,0.02,1.55c0.01,0.52,0.01,1.01,0.02,1.46
			c0.01,0.45,0.01,0.84,0.01,1.18c0,0.3,0,0.53,0,0.69h-0.29C898.31,101.27,896.62,99.38,894.81,97.45z"/>
	</g>
	<g class="st1">
		<polygon class="st2" points="922.6,62.7 923.68,62.7 923.68,103.17 922.6,103.17 922.6,62.7 		"/>
		<path class="st2" d="M923.14,82.94"/>
	</g>
	<g>
		<g>
			<path class="st0" d="M1024.57,88.12v9.3h9.6c0.4,0,0.78-0.02,1.14-0.06c-0.54,0.97-1.3,1.7-2.29,2.23
				c-0.99,0.52-2.18,0.77-3.55,0.77h-9.6V88.12H1024.57z M1024.57,71.1v8.58h9.02c0.44,0,0.86-0.02,1.27-0.07
				c-0.29,0.57-0.68,1.07-1.18,1.5c-1.18,1.01-2.78,1.52-4.8,1.52h-9.02V71.1H1024.57z M1040.44,88.56
				c-0.21-0.29-0.44-0.57-0.67-0.83c-0.5-0.74-1.2-1.33-2.07-1.78c-0.56-0.33-1.06-0.58-1.59-0.78c0.96-0.37,1.85-0.95,2.67-1.74
				c0.83-0.81,1.49-1.79,1.98-2.95c0.52-1.18,0.77-2.45,0.77-3.83c0-2.23-0.5-4.16-1.49-5.82c-0.97-1.67-2.39-2.95-4.25-3.83
				c-1.84-0.9-3.97-1.35-6.4-1.35h-10.96V62.7h15.66c2.43,0,4.56,0.45,6.4,1.35c1.85,0.88,3.27,2.16,4.24,3.83
				c0.99,1.65,1.49,3.59,1.49,5.82c0,1.38-0.26,2.66-0.77,3.83c-0.5,1.16-1.16,2.14-1.98,2.95c-0.83,0.79-1.72,1.37-2.68,1.74
				c1.73,0.66,3.17,1.79,4.33,3.39c1.16,1.6,1.74,3.58,1.74,5.93c0,2.43-0.51,4.49-1.54,6.2c-1.01,1.69-2.45,2.98-4.3,3.86
				c-0.49,0.23-0.99,0.43-1.52,0.6c0.42-0.46,0.79-0.97,1.12-1.51c1.03-1.71,1.54-3.78,1.54-6.21
				C1042.17,92.14,1041.59,90.16,1040.44,88.56z M968.99,65.45c0.61,0.44,1.21,0.93,1.79,1.47l-3.92,3.86
				c-0.81-0.79-1.67-1.41-2.59-1.85c-0.92-0.46-1.88-0.78-2.87-0.97c-0.99-0.2-2.09-0.3-3.28-0.3c-1.18,0-2.23,0.16-3.16,0.48
				c0.14-0.48,0.34-0.94,0.6-1.37c0.59-0.96,1.43-1.7,2.54-2.23c1.1-0.53,2.42-0.8,3.95-0.8c1.19,0,2.29,0.1,3.28,0.3
				c0.99,0.18,1.95,0.5,2.87,0.97C968.46,65.15,968.73,65.29,968.99,65.45z M965.94,93.23c0.13-0.5,0.2-1.05,0.2-1.63
				c0-1.82-0.53-3.21-1.6-4.16c-0.48-0.48-1.04-0.84-1.68-1.07c-0.62-0.26-1.52-0.47-2.7-0.63l-4.75-0.66
				c-3.27-0.46-5.82-1.54-7.64-3.23c-1.95-1.82-2.92-4.37-2.92-7.66c0-2.33,0.54-4.39,1.63-6.18c0.92-1.51,2.17-2.73,3.77-3.66
				c-0.98,1.72-1.47,3.7-1.47,5.92c0,3.29,0.97,5.85,2.92,7.67c1.82,1.69,4.37,2.77,7.64,3.23l4.74,0.66
				c1.18,0.17,2.08,0.38,2.7,0.63c0.64,0.24,1.2,0.6,1.68,1.08c1.07,0.96,1.6,2.34,1.6,4.16c0,1.95-0.74,3.47-2.21,4.55
				C967.3,92.64,966.66,92.97,965.94,93.23z M943.47,97.94l3.95-3.9c1.89,1.88,3.96,3.23,6.21,4.05c2.28,0.81,4.96,1.21,8.03,1.21
				c2.12,0,4.04-0.26,5.79-0.77c1.21-0.37,2.3-0.85,3.3-1.46c-0.67,1.16-1.55,2.17-2.64,3.04c-1.3,1.03-2.83,1.81-4.58,2.34
				c-1.74,0.51-3.67,0.77-5.79,0.77c-3.07,0-5.74-0.4-8.02-1.21C947.45,101.2,945.37,99.84,943.47,97.94z M981.12,62.7h4.71v26.36
				c0,1.76,0.34,3.31,1.02,4.63c0.13,0.25,0.28,0.5,0.43,0.73c-0.81-0.17-1.56-0.45-2.24-0.83c-1.25-0.72-2.21-1.73-2.89-3.03
				c-0.68-1.32-1.02-2.87-1.02-4.63V62.7z M1008.58,89.34c0,2.72-0.62,5.14-1.87,7.25c-1.25,2.11-2.98,3.75-5.19,4.91
				c-2.19,1.16-4.65,1.74-7.39,1.74c-2.72,0-5.18-0.58-7.36-1.74c-1.27-0.67-2.38-1.51-3.34-2.5c1.83,0.74,3.83,1.1,5.99,1.1
				c2.74,0,5.2-0.58,7.39-1.74c2.2-1.16,3.93-2.79,5.18-4.91c1.25-2.11,1.88-4.53,1.88-7.25V62.7h4.71V89.34z"/>
		</g>
	</g>
	<g>
		<defs>
			<polyline id="SVGID_1_" points="135.43,53.01 58.95,53.01 58.95,53.01 58.95,124.66 			"/>
		</defs>
		<clipPath id="SVGID_00000097473234948477005110000003520017791100738454_">
			<use xlink:href="#SVGID_1_"  style="overflow:visible;"/>
		</clipPath>
		<path style="clip-path:url(#SVGID_00000097473234948477005110000003520017791100738454_);" d="M78.92,122.07
			c-0.14,0.35-0.17,0.5-0.17,0.85l-0.73-0.29c0.38-0.41,0.43-0.53,0.6-0.94l0.98-2.4l-0.87,0.28l-0.15-0.17
			c0.16-0.05,1.53-0.59,1.72-0.63L78.92,122.07L78.92,122.07L78.92,122.07z"/>
		<path style="clip-path:url(#SVGID_00000097473234948477005110000003520017791100738454_);" d="M99.18,120.54l-0.69,0.06
			c-0.75,0.07-0.99,0.23-1.22,0.41l0.03-0.48c0.01-0.1,0-0.15-0.01-0.22l2.53-0.23l-0.89,2.04c1.09,0.11,1.17,0.94,1.18,1.08
			c0.03,0.33-0.15,1.32-1.47,1.44c-0.65,0.06-0.93-0.04-1.11-0.11l0.31-0.77c0.08,0.18,0.25,0.59,0.88,0.54
			c0.63-0.06,0.94-0.61,0.9-1.07c-0.03-0.31-0.25-0.55-0.47-0.63c-0.32-0.11-0.64-0.08-0.9-0.05L99.18,120.54L99.18,120.54
			L99.18,120.54z"/>
	</g>
	<path class="st4" d="M87.18,104.2"/>
	<path class="st4" d="M95.82,100.25L95.82,100.25L95.82,100.25"/>
	<g>
		<defs>
			<polyline id="SVGID_00000020385054119273370330000013349265474534965679_" points="58.95,53.01 58.95,53.01 58.95,124.66 			"/>
		</defs>
		<defs>
			<path id="SVGID_00000093141148984224649160000011857403358790371494_" d="M135.43,53.01"/>
		</defs>
		<clipPath id="SVGID_00000096034141481570619160000001192168776328885151_">
			<use xlink:href="#SVGID_00000020385054119273370330000013349265474534965679_"  style="overflow:visible;"/>
		</clipPath>
		
			<clipPath id="SVGID_00000169526953436571814250000011047534496216882845_" style="clip-path:url(#SVGID_00000096034141481570619160000001192168776328885151_);">
			<use xlink:href="#SVGID_00000093141148984224649160000011857403358790371494_"  style="overflow:visible;"/>
		</clipPath>
		<path style="clip-path:url(#SVGID_00000169526953436571814250000011047534496216882845_);fill:#003867;" d="M101.74,107.55
			c-1.78,0.38-3.62,0.61-5.53,0.65c-3.56,0.07-7.11-0.36-10.48-1.2c-0.93,1.73-1.87,3.29-2.81,4.72c4.28,1.23,8.84,1.87,13.39,1.78
			c3.03-0.06,5.93-0.51,8.67-1.27c-0.32-0.42-0.65-0.84-0.99-1.29C103.2,109.87,102.45,108.73,101.74,107.55L101.74,107.55
			L101.74,107.55z"/>
		<path style="clip-path:url(#SVGID_00000169526953436571814250000011047534496216882845_);fill:#003867;" d="M94.61,53.02
			c-17.65,0.17-35.81,11.89-35.65,31.24c0.06,7.14,2.83,13.58,8.02,18.64c3.56,3.47,8.26,6.22,13.5,8.06
			c0.93-1.37,1.86-2.91,2.79-4.65c-4.92-1.57-9.33-4.05-12.59-7.22l0,0l0,0c-4.21-4.1-6.37-9.11-6.42-14.87
			c-0.13-16.02,15.35-25.74,30.39-25.88c14.76-0.14,26.93,9.16,27.05,9.26l1.35,1.15l1.29-6.36"/>
	</g>
	<path class="st4" d="M126.54,62.77l-0.38,1.97"/>
	<path d="M93.77,93.61L93.77,93.61 M96.28,83.56"/>
</g>
<g>
	<path class="st7" d="M270.62,97.56c-0.36-0.63-0.8-0.9-1.44-0.9c-0.92,0-1.6,0.61-1.6,1.43c0,0.59,0.36,1.04,1.1,1.35l0.17,0.07
		l0.17,0.07l0.18,0.07c0.14,0.06,0.27,0.13,0.39,0.21c0.24,0.17,0.37,0.4,0.37,0.71c0,0.51-0.37,0.89-0.88,0.89
		c-0.33,0-0.63-0.16-0.77-0.42c-0.08-0.14-0.11-0.26-0.15-0.59l-0.82,0.18c0.14,1,0.78,1.58,1.73,1.58c0.97,0,1.69-0.74,1.69-1.73
		c0-0.71-0.39-1.2-1.25-1.56c-0.76-0.31-0.69-0.27-0.86-0.39c-0.18-0.12-0.26-0.27-0.26-0.45c0-0.38,0.34-0.67,0.78-0.67
		c0.37,0,0.55,0.12,0.8,0.53L270.62,97.56L270.62,97.56z M275.08,97.53v-0.76h-2.95v5.35h2.95v-0.76h-2.14v-1.78h2.08v-0.76h-2.08
		v-1.29H275.08L275.08,97.53z M277.38,96.77h-0.81v5.35h0.81V96.77L277.38,96.77z M280.48,97.53h1.23v-0.76h-3.27v0.76h1.23v4.59
		h0.81V97.53L280.48,97.53z M286.17,97.52v4.6h0.81v-5.35h-1.29l-0.44,0.75H286.17L286.17,97.52z M291.16,97.52l-2.67,4.37
		l0.64,0.41l3.38-5.54h-3.99v0.75H291.16L291.16,97.52z M294.36,99.63c0.33,0.01,0.45,0.02,0.6,0.09c0.3,0.12,0.47,0.43,0.47,0.83
		c0,0.53-0.39,0.92-0.9,0.92c-0.52,0-0.85-0.28-0.93-0.8h-0.78c0.03,0.35,0.07,0.51,0.18,0.72c0.27,0.51,0.84,0.82,1.48,0.82
		c1.03,0,1.74-0.67,1.74-1.63c0-0.59-0.22-1.02-0.66-1.28c0.39-0.27,0.58-0.65,0.58-1.16c0-0.85-0.66-1.46-1.59-1.46
		c-0.93,0-1.43,0.45-1.6,1.45h0.8c0.11-0.53,0.33-0.72,0.78-0.72c0.49,0,0.82,0.32,0.82,0.79c0,0.3-0.16,0.58-0.39,0.67
		c-0.14,0.06-0.26,0.07-0.61,0.07V99.63L294.36,99.63z M299.97,97.52l-2.67,4.37l0.64,0.41l3.38-5.54h-3.99v0.75H299.97
		L299.97,97.52z"/>
	<path class="st7" d="M268.41,88.03h-0.81v5.35h0.81V88.03L268.41,88.03z M270.09,93.38h0.81v-3.75l3.9,4.08v-5.68h-0.81v3.72
		l-3.9-4.08V93.38L270.09,93.38z M279.7,91.2h0.38c1.11,0,1.81-0.62,1.81-1.59c0-0.49-0.22-0.97-0.58-1.25
		c-0.35-0.26-0.68-0.34-1.5-0.34h-0.91v5.35h0.81V91.2L279.7,91.2z M279.7,90.46v-1.69h0.27c0.77,0,1.15,0.27,1.15,0.82
		c0,0.59-0.36,0.87-1.12,0.87H279.7L279.7,90.46z M283.82,88.03h-0.81v3.44c0,1.16,0.84,2.01,1.98,2.01c1.13,0,1.97-0.86,1.97-2.01
		v-3.44h-0.81v3.23c0,0.47-0.04,0.7-0.17,0.92c-0.19,0.34-0.58,0.55-1,0.55c-0.43,0-0.81-0.21-1-0.55
		c-0.13-0.22-0.17-0.45-0.17-0.92V88.03L283.82,88.03z M288.65,93.38h1.23c0.72,0,1.06-0.1,1.41-0.38c0.35-0.29,0.54-0.7,0.54-1.16
		c0-0.63-0.35-1.14-0.91-1.34c0.3-0.26,0.43-0.58,0.43-0.96c0-0.5-0.24-0.99-0.61-1.24c-0.28-0.19-0.64-0.27-1.29-0.27h-0.8V93.38
		L288.65,93.38z M289.46,90.33v-1.56h0.28c0.55,0,0.84,0.27,0.84,0.77c0,0.51-0.3,0.79-0.88,0.79H289.46L289.46,90.33z
		 M289.46,92.62V91h0.41c0.78,0,1.16,0.27,1.16,0.83c0,0.5-0.39,0.79-1.08,0.79H289.46L289.46,92.62z M294.01,88.03h-0.81v5.35h2.38
		v-0.76h-1.57V88.03L294.01,88.03z M297.8,88.03h-0.81v5.35h0.81V88.03L297.8,88.03z M303.26,88.32c-0.5-0.29-0.87-0.39-1.44-0.39
		c-1.51,0-2.78,1.27-2.78,2.77c0,1.57,1.22,2.79,2.78,2.79c0.5,0,0.96-0.13,1.44-0.4v-0.97c-0.51,0.43-0.92,0.61-1.42,0.61
		c-1.13,0-1.99-0.87-1.99-2.01c0-1.13,0.87-2.03,1.96-2.03c0.54,0,0.95,0.17,1.45,0.59V88.32L303.26,88.32z M307.74,92.08l0.56,1.3
		h0.88l-2.55-5.69l-2.65,5.69h0.87l0.6-1.3H307.74L307.74,92.08z M307.41,91.32h-1.62l0.83-1.81L307.41,91.32L307.41,91.32z
		 M316.62,88.32c-0.5-0.29-0.87-0.39-1.44-0.39c-1.51,0-2.78,1.27-2.78,2.77c0,1.57,1.22,2.79,2.78,2.79c0.5,0,0.96-0.13,1.44-0.4
		v-0.97c-0.51,0.43-0.92,0.61-1.42,0.61c-1.13,0-1.99-0.87-1.99-2.01c0-1.13,0.87-2.03,1.96-2.03c0.54,0,0.95,0.17,1.45,0.59V88.32
		L316.62,88.32z M320.47,87.92c-1.56,0-2.81,1.25-2.81,2.8c0,1.55,1.23,2.76,2.81,2.76c1.53,0,2.79-1.25,2.79-2.78
		C323.25,89.17,322,87.92,320.47,87.92L320.47,87.92z M320.46,88.68c1.12,0,1.98,0.88,1.98,2.03c0,1.11-0.88,2.01-1.98,2.01
		c-1.11,0-1.99-0.88-1.99-2.01C318.47,89.57,319.33,88.68,320.46,88.68L320.46,88.68z M324.11,93.38h0.84l0.58-3.23l1.54,3.48
		l1.58-3.48l0.51,3.23h0.83l-1.01-5.76l-1.9,4.16l-1.84-4.16L324.11,93.38L324.11,93.38z M331.17,93.38h0.83l0.58-3.23l1.54,3.48
		l1.58-3.48l0.51,3.23h0.83l-1.01-5.76l-1.9,4.16l-1.84-4.16L331.17,93.38L331.17,93.38z M340.79,87.92c-1.56,0-2.81,1.25-2.81,2.8
		c0,1.55,1.24,2.76,2.81,2.76c1.53,0,2.79-1.25,2.79-2.78C343.57,89.17,342.32,87.92,340.79,87.92L340.79,87.92z M340.78,88.68
		c1.12,0,1.98,0.88,1.98,2.03c0,1.11-0.88,2.01-1.98,2.01c-1.11,0-1.99-0.88-1.99-2.01C338.79,89.57,339.65,88.68,340.78,88.68
		L340.78,88.68z M344.91,93.38h1.11c0.96,0,1.42-0.12,1.96-0.51c0.7-0.51,1.07-1.25,1.07-2.15c0-0.92-0.36-1.68-1.03-2.17
		c-0.52-0.38-1.06-0.52-1.98-0.52h-1.12V93.38L344.91,93.38z M345.72,92.62v-3.83h0.36c0.65,0,1.08,0.11,1.43,0.38
		c0.46,0.34,0.73,0.91,0.73,1.53c0,0.63-0.26,1.19-0.73,1.53c-0.38,0.27-0.78,0.39-1.43,0.39H345.72L345.72,92.62z M353.24,92.08
		l0.56,1.3h0.88l-2.55-5.69l-2.65,5.69h0.87l0.6-1.3H353.24L353.24,92.08z M352.91,91.32h-1.62l0.83-1.81L352.91,91.32L352.91,91.32
		z"/>
	<path d="M157.52,95.05v1.46h4.19c-0.06,0.87-0.21,1.42-0.57,1.99c-0.85,1.42-2.64,2.41-4.33,2.41c-3.13,0-5.73-2.6-5.73-5.77
		c0-3.28,2.58-5.86,5.86-5.86c1.86,0,3.32,0.82,4.69,2.64l1.16-1.06c-1.8-2.14-3.55-3.07-5.86-3.07c-4.14,0-7.44,3.24-7.44,7.32
		c0,3.97,3.28,7.27,7.23,7.27c2.09,0,4.1-0.95,5.37-2.54c0.95-1.18,1.31-2.43,1.31-4.44v-0.36H157.52L157.52,95.05z M172.74,87.8
		c-4.04,0-7.36,3.3-7.36,7.32c0,4.02,3.3,7.27,7.36,7.27c4,0,7.32-3.3,7.32-7.29C180.06,91.1,176.74,87.8,172.74,87.8L172.74,87.8z
		 M172.72,89.28c3.19,0,5.75,2.6,5.75,5.84c0,3.19-2.58,5.79-5.75,5.79c-3.17,0-5.75-2.6-5.75-5.79
		C166.97,91.86,169.53,89.28,172.72,89.28L172.72,89.28z M170.71,84.48c-0.59,0-1.08,0.49-1.08,1.08c0,0.59,0.49,1.08,1.08,1.08
		c0.59,0,1.08-0.49,1.08-1.08C171.79,84.97,171.31,84.48,170.71,84.48L170.71,84.48z M174.73,84.48c-0.59,0-1.08,0.49-1.08,1.08
		c0,0.59,0.49,1.08,1.08,1.08c0.59,0,1.08-0.49,1.08-1.08C175.81,84.97,175.32,84.48,174.73,84.48L174.73,84.48z M185.45,89.49h3.43
		v-1.46h-8.42v1.46h3.4v12.64h1.59V89.49L185.45,89.49z M195.07,89.49h3.43v-1.46h-8.42v1.46h3.4v12.64h1.59V89.49L195.07,89.49z
		 M202.05,88.03h-1.59v14.1h1.59V88.03L202.05,88.03z M205.66,102.13h1.59V91.27l10.97,11.5V88.03h-1.59v10.93l-10.97-11.52V102.13
		L205.66,102.13z M229.09,95.05v1.46h4.19c-0.06,0.87-0.21,1.42-0.57,1.99c-0.85,1.42-2.64,2.41-4.33,2.41
		c-3.13,0-5.73-2.6-5.73-5.77c0-3.28,2.58-5.86,5.86-5.86c1.86,0,3.32,0.82,4.69,2.64l1.16-1.06c-1.8-2.14-3.55-3.07-5.86-3.07
		c-4.14,0-7.44,3.24-7.44,7.32c0,3.97,3.28,7.27,7.23,7.27c2.09,0,4.1-0.95,5.37-2.54c0.95-1.18,1.31-2.43,1.31-4.44v-0.36H229.09
		L229.09,95.05z M245.07,89.49v-1.46h-7.29v14.1h7.29v-1.46h-5.71v-5.52h5.56V93.7h-5.56v-4.21H245.07L245.07,89.49z M247.85,102.13
		h1.59V91.27l10.97,11.5V88.03h-1.59v10.93l-10.97-11.52V102.13L247.85,102.13z"/>
	<path d="M305.48,64.07h-1.59v9.07c0,1.54,0.25,2.47,0.93,3.34c0.91,1.21,2.47,1.95,4.1,1.95c1.61,0,3.15-0.74,4.08-1.95
		c0.68-0.87,0.93-1.82,0.93-3.34v-9.07h-1.59v8.65c0,1.46-0.11,2.09-0.47,2.71c-0.55,0.89-1.75,1.52-2.96,1.52
		c-1.23,0-2.43-0.63-2.98-1.52c-0.36-0.61-0.47-1.25-0.47-2.71V64.07L305.48,64.07z M317.55,78.17h1.59V67.3l10.97,11.5V64.07h-1.59
		V75l-10.97-11.52V78.17L317.55,78.17z M335.34,64.07h-1.59v14.1h1.59V64.07L335.34,64.07z M338.95,64.07h-1.73L342.92,79
		l5.73-14.93h-1.71l-4,10.74L338.95,64.07L338.95,64.07z M357.84,65.53v-1.46h-7.3v14.1h7.3v-1.46h-5.71v-5.52h5.56v-1.46h-5.56
		v-4.21H357.84L357.84,65.53z M364.31,71.87c2.18-0.21,3.55-1.71,3.55-3.91c0-1.27-0.61-2.47-1.56-3.13
		c-0.8-0.55-1.78-0.76-3.38-0.76h-2.28v14.1h1.59V72h0.4l4.25,6.17h1.92L364.31,71.87L364.31,71.87z M362.21,70.6v-5.07h0.93
		c2.07,0,3.17,0.85,3.17,2.43c0,1.73-1.08,2.64-3.11,2.64H362.21L362.21,70.6z M378.28,66.03c-0.85-1.46-2.05-2.2-3.64-2.2
		c-2.24,0-3.95,1.56-3.95,3.62c0,1.59,0.82,2.58,2.85,3.49l0.42,0.19l0.42,0.19l0.42,0.21c0.47,0.19,0.87,0.4,1.23,0.63
		c0.78,0.49,1.16,1.14,1.16,2.01c0,1.56-1.25,2.77-2.88,2.77c-1.48,0-2.45-0.89-2.83-2.58l-1.52,0.42c0.55,2.33,2.11,3.64,4.38,3.64
		c2.49,0,4.44-1.92,4.44-4.36c0-1.75-0.93-2.88-3.19-3.87l-0.44-0.19l-0.44-0.19l-0.44-0.21c-0.4-0.17-0.76-0.38-1.1-0.59
		c-0.59-0.4-0.89-0.91-0.89-1.52c0-1.25,1.01-2.18,2.33-2.18c1.1,0,1.71,0.38,2.43,1.52L378.28,66.03L378.28,66.03z M383.19,64.07
		h-1.59v14.1h1.59V64.07L383.19,64.07z M390.11,65.53h3.43v-1.46h-8.42v1.46h3.4v12.64h1.59V65.53L390.11,65.53z M402.34,74.18
		l1.67,4h1.73l-6.34-14.78l-6.49,14.78h1.71l1.69-4H402.34L402.34,74.18z M401.73,72.72h-4.76l2.41-5.65L401.73,72.72L401.73,72.72z
		 M397.46,60.52c-0.59,0-1.08,0.49-1.08,1.08c0,0.59,0.49,1.08,1.08,1.08c0.59,0,1.08-0.49,1.08-1.08
		C398.54,61,398.05,60.52,397.46,60.52L397.46,60.52z M401.48,60.52c-0.59,0-1.08,0.49-1.08,1.08c0,0.59,0.49,1.08,1.08,1.08
		c0.59,0,1.08-0.49,1.08-1.08C402.55,61,402.07,60.52,401.48,60.52L401.48,60.52z M410.12,65.53h3.43v-1.46h-8.42v1.46h3.4v12.64
		h1.59V65.53L410.12,65.53z"/>
	<path d="M157.52,71.09v1.46h4.19c-0.06,0.87-0.21,1.42-0.57,1.99c-0.85,1.42-2.64,2.41-4.33,2.41c-3.13,0-5.73-2.6-5.73-5.77
		c0-3.28,2.58-5.86,5.86-5.86c1.86,0,3.32,0.82,4.69,2.64l1.16-1.06c-1.8-2.14-3.55-3.07-5.86-3.07c-4.14,0-7.44,3.23-7.44,7.32
		c0,3.97,3.28,7.27,7.23,7.27c2.09,0,4.1-0.95,5.37-2.54c0.95-1.18,1.31-2.43,1.31-4.44v-0.36H157.52L157.52,71.09z M173.49,65.53
		v-1.46h-7.29v14.1h7.29v-1.46h-5.71v-5.52h5.56v-1.46h-5.56v-4.21H173.49L173.49,65.53z M182.74,63.84c-4.04,0-7.36,3.3-7.36,7.32
		c0,4.02,3.3,7.27,7.36,7.27c4,0,7.32-3.3,7.32-7.29C190.06,67.13,186.74,63.84,182.74,63.84L182.74,63.84z M182.72,65.32
		c3.19,0,5.75,2.6,5.75,5.84c0,3.19-2.58,5.79-5.75,5.79c-3.17,0-5.75-2.6-5.75-5.79C176.97,67.9,179.53,65.32,182.72,65.32
		L182.72,65.32z M196.54,71.87c2.18-0.21,3.55-1.71,3.55-3.91c0-1.27-0.61-2.47-1.56-3.13c-0.8-0.55-1.78-0.76-3.38-0.76h-2.28v14.1
		h1.59V72h0.4l4.25,6.17h1.92L196.54,71.87L196.54,71.87z M194.45,70.6v-5.07h0.93c2.07,0,3.17,0.85,3.17,2.43
		c0,1.73-1.08,2.64-3.11,2.64H194.45L194.45,70.6z M210.24,71.09v1.46h4.19c-0.06,0.87-0.21,1.42-0.57,1.99
		c-0.85,1.42-2.64,2.41-4.33,2.41c-3.13,0-5.73-2.6-5.73-5.77c0-3.28,2.58-5.86,5.86-5.86c1.86,0,3.32,0.82,4.69,2.64l1.16-1.06
		c-1.8-2.14-3.55-3.07-5.86-3.07c-4.14,0-7.44,3.23-7.44,7.32c0,3.97,3.28,7.27,7.23,7.27c2.09,0,4.1-0.95,5.37-2.54
		c0.95-1.18,1.31-2.43,1.31-4.44v-0.36H210.24L210.24,71.09z M218.22,71.23v1.35h3.83v-1.35H218.22L218.22,71.23z M232.26,74.18
		l1.67,4h1.73l-6.34-14.78l-6.49,14.78h1.71l1.69-4H232.26L232.26,74.18z M231.65,72.72h-4.76l2.41-5.65L231.65,72.72L231.65,72.72z
		 M238.5,64.07h-1.59v9.07c0,1.54,0.25,2.47,0.93,3.34c0.91,1.21,2.47,1.95,4.1,1.95c1.61,0,3.15-0.74,4.08-1.95
		c0.68-0.87,0.93-1.82,0.93-3.34v-9.07h-1.59v8.65c0,1.46-0.11,2.09-0.47,2.71c-0.55,0.89-1.75,1.52-2.96,1.52
		c-1.23,0-2.43-0.63-2.98-1.52c-0.36-0.61-0.47-1.25-0.47-2.71V64.07L238.5,64.07z M257.73,71.09v1.46h4.19
		c-0.06,0.87-0.21,1.42-0.57,1.99c-0.85,1.42-2.64,2.41-4.33,2.41c-3.13,0-5.73-2.6-5.73-5.77c0-3.28,2.58-5.86,5.86-5.86
		c1.86,0,3.32,0.82,4.69,2.64l1.16-1.06c-1.8-2.14-3.55-3.07-5.86-3.07c-4.14,0-7.44,3.23-7.44,7.32c0,3.97,3.28,7.27,7.23,7.27
		c2.09,0,4.1-0.95,5.37-2.54c0.95-1.18,1.31-2.43,1.31-4.44v-0.36H257.73L257.73,71.09z M267.9,64.07h-1.59v9.07
		c0,1.54,0.25,2.47,0.93,3.34c0.91,1.21,2.47,1.95,4.1,1.95c1.61,0,3.15-0.74,4.08-1.95c0.68-0.87,0.93-1.82,0.93-3.34v-9.07h-1.59
		v8.65c0,1.46-0.11,2.09-0.47,2.71c-0.55,0.89-1.75,1.52-2.96,1.52c-1.23,0-2.43-0.63-2.98-1.52c-0.36-0.61-0.47-1.25-0.47-2.71
		V64.07L267.9,64.07z M287.25,66.03c-0.85-1.46-2.05-2.2-3.64-2.2c-2.24,0-3.95,1.56-3.95,3.62c0,1.59,0.82,2.58,2.85,3.49
		l0.42,0.19l0.42,0.19l0.42,0.21c0.47,0.19,0.87,0.4,1.23,0.63c0.78,0.49,1.16,1.14,1.16,2.01c0,1.56-1.25,2.77-2.88,2.77
		c-1.48,0-2.45-0.89-2.83-2.58l-1.52,0.42c0.55,2.33,2.11,3.64,4.38,3.64c2.49,0,4.44-1.92,4.44-4.36c0-1.75-0.93-2.88-3.19-3.87
		l-0.44-0.19l-0.44-0.19l-0.44-0.21c-0.4-0.17-0.76-0.38-1.1-0.59c-0.59-0.4-0.89-0.91-0.89-1.52c0-1.25,1.01-2.18,2.33-2.18
		c1.1,0,1.71,0.38,2.43,1.52L287.25,66.03L287.25,66.03z M293.99,65.53h3.43v-1.46H289v1.46h3.4v12.64h1.59V65.53L293.99,65.53z
		 M297.48,71.23v1.35h3.83v-1.35H297.48L297.48,71.23z"/>
	<path class="st8" d="M119.3,54.11l-17.13,37.21c-1.98,3.52-5.71,5.92-10.03,5.92v6.39c7.62,0,14.12-4.75,16.72-11.45h20.06
		l7.87,17.77h7.67L119.3,54.11L119.3,54.11z M119.18,69.8l6.89,15.78l-14.6,0L119.18,69.8L119.18,69.8z"/>
	<path class="st9" d="M106.67,66.19l3-6.44c-5-3.39-11.03-5.37-17.53-5.37c-17.28,0-31.29,14.01-31.29,31.29
		c0,17.28,14.01,31.29,31.29,31.29c15.06,0,27.63-10.64,30.62-24.8h-7.18c-2.84,10.28-12.24,17.84-23.43,17.84
		c-13.44,0-24.33-10.9-24.33-24.33c0-13.44,10.89-24.33,24.33-24.33C97.59,61.34,102.61,63.16,106.67,66.19L106.67,66.19z
		 M92.14,92.17h9.48c0.19-0.28,0.39-0.56,0.56-0.86l2.64-5.74H92.14V92.17L92.14,92.17z"/>
</g>
</svg>
